<?xml version="1.0" encoding="UTF-8"?>
<svg xmlns="http://www.w3.org/2000/svg" xmlns:xlink="http://www.w3.org/1999/xlink" width="375pt" height="374.999991pt" viewBox="0 0 375 374.999991" version="1.2">
<defs>
<clipPath id="clip1">
  <path d="M 77.691406 82 L 297.441406 82 L 297.441406 243 L 77.691406 243 Z M 77.691406 82 "/>
</clipPath>
<clipPath id="clip2">
  <path d="M 112 50.238281 L 263 50.238281 L 263 120 L 112 120 Z M 112 50.238281 "/>
</clipPath>
<clipPath id="clip3">
  <path d="M 80 193 L 283 193 L 283 324.738281 L 80 324.738281 Z M 80 193 "/>
</clipPath>
<clipPath id="clip4">
  <path d="M 243 190 L 297.441406 190 L 297.441406 317 L 243 317 Z M 243 190 "/>
</clipPath>
</defs>
<g id="surface1">
<path style=" stroke:none;fill-rule:nonzero;fill:rgb(100%,100%,100%);fill-opacity:1;" d="M 187.5 6.984375 C 184.546875 6.984375 181.59375 7.058594 178.644531 7.203125 C 175.691406 7.347656 172.746094 7.566406 169.804688 7.855469 C 166.867188 8.144531 163.933594 8.507812 161.011719 8.941406 C 158.089844 9.375 155.179688 9.878906 152.285156 10.453125 C 149.386719 11.03125 146.503906 11.679688 143.636719 12.394531 C 140.773438 13.113281 137.925781 13.902344 135.097656 14.757812 C 132.273438 15.617188 129.46875 16.542969 126.6875 17.539062 C 123.90625 18.53125 121.148438 19.597656 118.421875 20.726562 C 115.691406 21.855469 112.992188 23.054688 110.320312 24.316406 C 107.648438 25.582031 105.011719 26.90625 102.40625 28.300781 C 99.800781 29.691406 97.230469 31.148438 94.695312 32.667969 C 92.164062 34.1875 89.667969 35.765625 87.210938 37.40625 C 84.753906 39.050781 82.339844 40.75 79.96875 42.507812 C 77.59375 44.269531 75.265625 46.085938 72.984375 47.960938 C 70.699219 49.835938 68.464844 51.765625 66.273438 53.746094 C 64.085938 55.730469 61.945312 57.769531 59.855469 59.855469 C 57.769531 61.945312 55.730469 64.085938 53.746094 66.273438 C 51.765625 68.464844 49.835938 70.699219 47.960938 72.984375 C 46.085938 75.265625 44.269531 77.59375 42.507812 79.96875 C 40.75 82.339844 39.050781 84.753906 37.40625 87.210938 C 35.765625 89.667969 34.1875 92.164062 32.667969 94.695312 C 31.148438 97.230469 29.691406 99.800781 28.300781 102.40625 C 26.90625 105.011719 25.582031 107.648438 24.316406 110.320312 C 23.054688 112.992188 21.855469 115.691406 20.726562 118.421875 C 19.597656 121.148438 18.53125 123.90625 17.539062 126.6875 C 16.542969 129.46875 15.617188 132.273438 14.757812 135.097656 C 13.902344 137.925781 13.113281 140.773438 12.394531 143.636719 C 11.679688 146.503906 11.03125 149.386719 10.453125 152.285156 C 9.878906 155.179688 9.375 158.089844 8.941406 161.011719 C 8.507812 163.933594 8.144531 166.867188 7.855469 169.804688 C 7.566406 172.746094 7.347656 175.691406 7.203125 178.644531 C 7.058594 181.59375 6.984375 184.546875 6.984375 187.5 C 6.984375 190.453125 7.058594 193.40625 7.203125 196.355469 C 7.347656 199.308594 7.566406 202.253906 7.855469 205.195312 C 8.144531 208.132812 8.507812 211.066406 8.941406 213.988281 C 9.375 216.910156 9.878906 219.820312 10.453125 222.714844 C 11.03125 225.613281 11.679688 228.496094 12.394531 231.363281 C 13.113281 234.226562 13.902344 237.074219 14.757812 239.902344 C 15.617188 242.726562 16.542969 245.53125 17.539062 248.3125 C 18.53125 251.09375 19.597656 253.851562 20.726562 256.578125 C 21.855469 259.308594 23.054688 262.007812 24.316406 264.679688 C 25.582031 267.351562 26.90625 269.988281 28.300781 272.59375 C 29.691406 275.199219 31.148438 277.769531 32.667969 280.304688 C 34.1875 282.835938 35.765625 285.332031 37.40625 287.789062 C 39.050781 290.246094 40.75 292.660156 42.507812 295.03125 C 44.269531 297.40625 46.085938 299.734375 47.960938 302.015625 C 49.835938 304.300781 51.765625 306.535156 53.746094 308.726562 C 55.730469 310.914062 57.769531 313.054688 59.855469 315.144531 C 61.945312 317.230469 64.085938 319.269531 66.273438 321.253906 C 68.464844 323.234375 70.699219 325.164062 72.984375 327.039062 C 75.265625 328.914062 77.59375 330.730469 79.96875 332.492188 C 82.339844 334.25 84.753906 335.949219 87.210938 337.59375 C 89.667969 339.234375 92.164062 340.8125 94.695312 342.332031 C 97.230469 343.851562 99.800781 345.304688 102.40625 346.699219 C 105.011719 348.09375 107.648438 349.417969 110.320312 350.683594 C 112.992188 351.945312 115.691406 353.144531 118.421875 354.273438 C 121.148438 355.402344 123.90625 356.464844 126.6875 357.460938 C 129.46875 358.457031 132.273438 359.382812 135.097656 360.242188 C 137.925781 361.097656 140.773438 361.886719 143.636719 362.605469 C 146.503906 363.320312 149.386719 363.96875 152.285156 364.546875 C 155.179688 365.121094 158.089844 365.625 161.011719 366.058594 C 163.933594 366.492188 166.867188 366.855469 169.804688 367.144531 C 172.746094 367.433594 175.691406 367.652344 178.644531 367.796875 C 181.59375 367.941406 184.546875 368.015625 187.5 368.015625 C 190.453125 368.015625 193.40625 367.941406 196.355469 367.796875 C 199.308594 367.652344 202.253906 367.433594 205.195312 367.144531 C 208.132812 366.855469 211.066406 366.492188 213.988281 366.058594 C 216.910156 365.625 219.820312 365.121094 222.714844 364.546875 C 225.613281 363.96875 228.496094 363.320312 231.363281 362.605469 C 234.226562 361.886719 237.074219 361.097656 239.902344 360.242188 C 242.726562 359.382812 245.53125 358.457031 248.3125 357.460938 C 251.09375 356.464844 253.851562 355.402344 256.578125 354.273438 C 259.308594 353.144531 262.007812 351.945312 264.679688 350.683594 C 267.351562 349.417969 269.988281 348.09375 272.59375 346.699219 C 275.199219 345.304688 277.769531 343.851562 280.304688 342.332031 C 282.835938 340.8125 285.332031 339.234375 287.789062 337.59375 C 290.246094 335.949219 292.660156 334.25 295.03125 332.492188 C 297.40625 330.730469 299.734375 328.914062 302.015625 327.039062 C 304.300781 325.164062 306.535156 323.234375 308.726562 321.253906 C 310.914062 319.269531 313.054688 317.230469 315.144531 315.144531 C 317.230469 313.054688 319.269531 310.914062 321.253906 308.726562 C 323.234375 306.535156 325.164062 304.300781 327.039062 302.015625 C 328.914062 299.734375 330.730469 297.40625 332.492188 295.03125 C 334.25 292.660156 335.949219 290.246094 337.59375 287.789062 C 339.234375 285.332031 340.8125 282.835938 342.332031 280.304688 C 343.851562 277.769531 345.304688 275.199219 346.699219 272.59375 C 348.09375 269.988281 349.417969 267.351562 350.683594 264.679688 C 351.945312 262.007812 353.144531 259.308594 354.273438 256.578125 C 355.402344 253.851562 356.464844 251.09375 357.460938 248.3125 C 358.457031 245.53125 359.382812 242.726562 360.242188 239.902344 C 361.097656 237.074219 361.886719 234.226562 362.605469 231.363281 C 363.320312 228.496094 363.96875 225.613281 364.546875 222.714844 C 365.121094 219.820312 365.625 216.910156 366.058594 213.988281 C 366.492188 211.066406 366.855469 208.132812 367.144531 205.195312 C 367.433594 202.253906 367.652344 199.308594 367.796875 196.355469 C 367.941406 193.40625 368.015625 190.453125 368.015625 187.5 C 368.015625 184.546875 367.941406 181.59375 367.796875 178.644531 C 367.652344 175.691406 367.433594 172.746094 367.144531 169.804688 C 366.855469 166.867188 366.492188 163.933594 366.058594 161.011719 C 365.625 158.089844 365.121094 155.179688 364.546875 152.285156 C 363.96875 149.386719 363.320312 146.503906 362.605469 143.636719 C 361.886719 140.773438 361.097656 137.925781 360.242188 135.097656 C 359.382812 132.273438 358.457031 129.46875 357.460938 126.6875 C 356.464844 123.90625 355.402344 121.148438 354.273438 118.421875 C 353.144531 115.691406 351.945312 112.992188 350.683594 110.320312 C 349.417969 107.648438 348.09375 105.011719 346.699219 102.40625 C 345.304688 99.800781 343.851562 97.230469 342.332031 94.695312 C 340.8125 92.164062 339.234375 89.667969 337.59375 87.210938 C 335.949219 84.753906 334.25 82.339844 332.492188 79.96875 C 330.730469 77.59375 328.914062 75.265625 327.039062 72.984375 C 325.164062 70.699219 323.234375 68.464844 321.253906 66.273438 C 319.269531 64.085938 317.230469 61.945312 315.144531 59.855469 C 313.054688 57.769531 310.914062 55.730469 308.726562 53.746094 C 306.535156 51.765625 304.300781 49.835938 302.015625 47.960938 C 299.734375 46.085938 297.40625 44.269531 295.03125 42.507812 C 292.660156 40.75 290.246094 39.050781 287.789062 37.40625 C 285.332031 35.765625 282.835938 34.1875 280.304688 32.667969 C 277.769531 31.148438 275.199219 29.691406 272.59375 28.300781 C 269.988281 26.90625 267.351562 25.582031 264.679688 24.316406 C 262.007812 23.054688 259.308594 21.855469 256.578125 20.726562 C 253.851562 19.597656 251.09375 18.53125 248.3125 17.539062 C 245.53125 16.542969 242.726562 15.617188 239.902344 14.757812 C 237.074219 13.902344 234.226562 13.113281 231.363281 12.394531 C 228.496094 11.679688 225.613281 11.03125 222.714844 10.453125 C 219.820312 9.878906 216.910156 9.375 213.988281 8.941406 C 211.066406 8.507812 208.132812 8.144531 205.195312 7.855469 C 202.253906 7.566406 199.308594 7.347656 196.355469 7.203125 C 193.40625 7.058594 190.453125 6.984375 187.5 6.984375 Z M 187.5 6.984375 "/>
<g clip-path="url(#clip1)" clip-rule="nonzero">
<path style=" stroke:none;fill-rule:nonzero;fill:rgb(36.859131%,9.01947%,92.158508%);fill-opacity:1;" d="M 187.535156 242.375 C 252.257812 242.375 297.378906 188.113281 297.378906 139.464844 C 297.382812 134.289062 296.941406 129.152344 296.046875 124.054688 C 295.152344 118.957031 293.820312 113.972656 292.054688 109.105469 C 290.289062 104.242188 288.109375 99.566406 285.527344 95.078125 C 282.941406 90.59375 279.984375 86.367188 276.660156 82.398438 L 268.609375 82.398438 C 232.097656 82.398438 194.402344 108.90625 194.402344 153.1875 C 194.402344 153.636719 194.355469 154.082031 194.269531 154.527344 C 194.179688 154.96875 194.050781 155.398438 193.878906 155.8125 C 193.707031 156.230469 193.496094 156.625 193.242188 157 C 192.992188 157.375 192.710938 157.71875 192.390625 158.039062 C 192.070312 158.355469 191.726562 158.640625 191.351562 158.890625 C 190.976562 159.140625 190.578125 159.351562 190.164062 159.527344 C 189.746094 159.699219 189.316406 159.828125 188.875 159.914062 C 188.433594 160.003906 187.988281 160.046875 187.535156 160.046875 C 187.085938 160.046875 186.636719 160.003906 186.195312 159.914062 C 185.753906 159.828125 185.324219 159.699219 184.910156 159.527344 C 184.492188 159.351562 184.097656 159.140625 183.722656 158.890625 C 183.347656 158.640625 183 158.355469 182.679688 158.039062 C 182.363281 157.71875 182.078125 157.375 181.828125 157 C 181.578125 156.625 181.367188 156.230469 181.191406 155.8125 C 181.019531 155.398438 180.890625 154.96875 180.800781 154.527344 C 180.714844 154.082031 180.671875 153.636719 180.671875 153.1875 C 180.671875 108.90625 142.972656 82.398438 106.464844 82.398438 L 98.414062 82.398438 C 95.085938 86.367188 92.132812 90.59375 89.546875 95.078125 C 86.960938 99.566406 84.785156 104.242188 83.019531 109.105469 C 81.25 113.972656 79.921875 118.957031 79.027344 124.054688 C 78.132812 129.152344 77.6875 134.289062 77.691406 139.464844 C 77.691406 188.050781 124.6875 242.375 187.535156 242.375 Z M 242.457031 118.882812 C 243.359375 118.882812 244.253906 118.972656 245.136719 119.148438 C 246.019531 119.324219 246.878906 119.585938 247.710938 119.929688 C 248.546875 120.273438 249.335938 120.695312 250.085938 121.195312 C 250.835938 121.699219 251.527344 122.265625 252.167969 122.902344 C 252.804688 123.539062 253.375 124.234375 253.875 124.984375 C 254.375 125.730469 254.796875 126.523438 255.144531 127.355469 C 255.488281 128.1875 255.75 129.046875 255.925781 129.929688 C 256.101562 130.8125 256.1875 131.703125 256.1875 132.605469 C 256.1875 133.507812 256.101562 134.398438 255.925781 135.28125 C 255.75 136.167969 255.488281 137.023438 255.144531 137.855469 C 254.796875 138.6875 254.375 139.480469 253.875 140.230469 C 253.375 140.976562 252.804688 141.671875 252.167969 142.308594 C 251.527344 142.945312 250.835938 143.515625 250.085938 144.015625 C 249.335938 144.515625 248.546875 144.9375 247.710938 145.28125 C 246.878906 145.628906 246.019531 145.886719 245.136719 146.0625 C 244.253906 146.238281 243.359375 146.328125 242.457031 146.328125 C 241.554688 146.328125 240.664062 146.238281 239.777344 146.0625 C 238.894531 145.886719 238.035156 145.628906 237.203125 145.28125 C 236.371094 144.9375 235.578125 144.515625 234.828125 144.015625 C 234.078125 143.515625 233.386719 142.945312 232.75 142.308594 C 232.109375 141.671875 231.542969 140.976562 231.042969 140.230469 C 230.539062 139.480469 230.117188 138.6875 229.773438 137.855469 C 229.425781 137.023438 229.167969 136.167969 228.992188 135.28125 C 228.816406 134.398438 228.726562 133.507812 228.726562 132.605469 C 228.730469 131.707031 228.824219 130.816406 229 129.933594 C 229.179688 129.050781 229.441406 128.195312 229.789062 127.363281 C 230.136719 126.535156 230.558594 125.746094 231.058594 124.996094 C 231.5625 124.25 232.128906 123.558594 232.765625 122.921875 C 233.402344 122.285156 234.097656 121.714844 234.84375 121.214844 C 235.59375 120.714844 236.382812 120.292969 237.214844 119.945312 C 238.042969 119.597656 238.902344 119.335938 239.785156 119.160156 C 240.664062 118.980469 241.558594 118.886719 242.457031 118.882812 Z M 132.613281 118.882812 C 133.515625 118.882812 134.410156 118.972656 135.292969 119.148438 C 136.175781 119.324219 137.035156 119.585938 137.867188 119.929688 C 138.703125 120.273438 139.492188 120.695312 140.242188 121.195312 C 140.992188 121.699219 141.683594 122.265625 142.324219 122.902344 C 142.960938 123.539062 143.53125 124.234375 144.03125 124.984375 C 144.53125 125.730469 144.953125 126.523438 145.300781 127.355469 C 145.644531 128.1875 145.90625 129.046875 146.082031 129.929688 C 146.257812 130.8125 146.34375 131.703125 146.34375 132.605469 C 146.34375 133.507812 146.257812 134.398438 146.082031 135.28125 C 145.90625 136.167969 145.644531 137.023438 145.300781 137.855469 C 144.953125 138.6875 144.53125 139.480469 144.03125 140.230469 C 143.53125 140.976562 142.960938 141.671875 142.324219 142.308594 C 141.683594 142.945312 140.992188 143.515625 140.242188 144.015625 C 139.492188 144.515625 138.703125 144.9375 137.867188 145.28125 C 137.035156 145.628906 136.175781 145.886719 135.292969 146.0625 C 134.410156 146.238281 133.515625 146.328125 132.613281 146.328125 C 131.710938 146.328125 130.820312 146.238281 129.933594 146.0625 C 129.050781 145.886719 128.191406 145.628906 127.359375 145.28125 C 126.527344 144.9375 125.734375 144.515625 124.984375 144.015625 C 124.234375 143.515625 123.542969 142.945312 122.90625 142.308594 C 122.265625 141.671875 121.699219 140.976562 121.199219 140.230469 C 120.695312 139.480469 120.273438 138.6875 119.929688 137.855469 C 119.582031 137.023438 119.324219 136.167969 119.148438 135.28125 C 118.972656 134.398438 118.882812 133.507812 118.882812 132.605469 C 118.886719 131.707031 118.980469 130.816406 119.15625 129.933594 C 119.335938 129.050781 119.597656 128.195312 119.945312 127.363281 C 120.292969 126.535156 120.714844 125.746094 121.214844 124.996094 C 121.71875 124.25 122.285156 123.558594 122.921875 122.921875 C 123.558594 122.285156 124.253906 121.714844 125 121.214844 C 125.75 120.714844 126.539062 120.292969 127.371094 119.945312 C 128.199219 119.597656 129.058594 119.335938 129.941406 119.160156 C 130.820312 118.980469 131.714844 118.886719 132.613281 118.882812 Z M 132.613281 118.882812 "/>
</g>
<g clip-path="url(#clip2)" clip-rule="nonzero">
<path style=" stroke:none;fill-rule:nonzero;fill:rgb(36.859131%,9.01947%,92.158508%);fill-opacity:1;" d="M 187.535156 119.445312 C 200.890625 89.011719 231.660156 71.109375 262.742188 69.113281 C 258.875 66.082031 254.78125 63.390625 250.464844 61.039062 C 246.148438 58.691406 241.667969 56.714844 237.019531 55.113281 C 232.375 53.507812 227.625 52.300781 222.777344 51.492188 C 217.929688 50.679688 213.046875 50.277344 208.132812 50.277344 L 166.941406 50.277344 C 162.023438 50.277344 157.140625 50.679688 152.292969 51.492188 C 147.445312 52.300781 142.699219 53.507812 138.050781 55.113281 C 133.40625 56.714844 128.921875 58.691406 124.605469 61.039062 C 120.289062 63.390625 116.199219 66.082031 112.332031 69.113281 C 143.410156 71.109375 174.179688 89.011719 187.535156 119.445312 Z M 187.535156 119.445312 "/>
</g>
<g clip-path="url(#clip3)" clip-rule="nonzero">
<path style=" stroke:none;fill-rule:nonzero;fill:rgb(36.859131%,9.01947%,92.158508%);fill-opacity:1;" d="M 229.601562 248.671875 C 216.027344 253.621094 202.003906 256.09375 187.535156 256.09375 C 140.226562 256.09375 100.972656 228.464844 80.125 193.726562 C 91.421875 269.816406 157.703125 324.699219 235.59375 324.699219 L 282.464844 324.699219 C 252.941406 307.863281 233.78125 280.667969 229.601562 248.671875 Z M 229.601562 248.671875 "/>
</g>
<g clip-path="url(#clip4)" clip-rule="nonzero">
<path style=" stroke:none;fill-rule:nonzero;fill:rgb(36.859131%,9.01947%,92.158508%);fill-opacity:1;" d="M 243.019531 242.875 C 245.765625 274.929688 265.925781 301.9375 297.378906 316.71875 L 297.378906 190.421875 C 294.296875 196.035156 290.8125 201.382812 286.925781 206.46875 C 283.039062 211.554688 278.789062 216.320312 274.179688 220.769531 C 269.574219 225.214844 264.65625 229.289062 259.433594 232.996094 C 254.210938 236.699219 248.738281 239.992188 243.019531 242.875 Z M 243.019531 242.875 "/>
</g>
</g>
</svg>
