<?xml version="1.0" encoding="utf-8"?>
<!-- Generator: Adobe Illustrator 24.0.1, SVG Export Plug-In . SVG Version: 6.00 Build 0)  -->
<svg version="1.1" id="Layer_1" xmlns="http://www.w3.org/2000/svg" xmlns:xlink="http://www.w3.org/1999/xlink" x="0px" y="0px"
	 viewBox="0 0 352.8 325.44" style="enable-background:new 0 0 352.8 325.44;" xml:space="preserve">
<style type="text/css">
	.st0{fill:#D1EBFF;}
	.st1{fill:#72B5E8;}
	.st2{fill:#A8CFF0;}
	.st3{fill:#FFFFFF;}
	.st4{fill:#EB4680;}
	.st5{fill:#D62D69;}
	.st6{opacity:0.7;fill:#FFFFFF;}
	.st7{fill:#3F92D1;}
	.st8{fill:#4F9FDB;}
	.st9{fill:#03336E;}
	.st10{fill:#001A46;}
	.st11{fill:#FFCC00;}
	.st12{fill:#0FBAB8;}
	.st13{fill:#2672AB;}
	.st14{fill:#084C94;}
	.st15{fill:#0BA19F;}
	.st16{fill:#FFD70F;}
	.st17{fill:#D99F00;}
	.st18{fill:#B08100;}
	.st19{fill:#FFDE17;}
	.st20{fill:#3ECFCD;}
	.st21{fill:#F76195;}
	.st22{opacity:0.2;fill:#92B4D1;}
</style>
<g>
	<polyline class="st0" points="511.72,-51.4 511.72,-51.4 511.72,-51.4 	"/>
</g>
<g>
	<g>
		<path class="st1" d="M292.77,189.7c-7.67-4.43-13.89-15.15-13.89-23.95c0-3.26,0.86-5.79,2.33-7.46c-4.21,0.3-7.06,3.83-7.06,9.77
			c0,8.8,6.22,19.52,13.89,23.95c4.82,2.78,9.05,2.4,11.54-0.44C297.57,191.71,295.25,191.13,292.77,189.7z"/>
		<path class="st2" d="M306.27,186.79c0-1.1-0.1-2.23-0.24-3.37l5.61-0.71c-0.57-2.83-1.44-5.68-2.54-8.5l-6.4-1.93
			c-1.12-2.39-2.46-4.71-3.98-6.87l1.53-6.45c-1.9-2.37-3.95-4.54-6.13-6.46l-3.44,4.45c-0.92-0.69-1.85-1.34-2.81-1.9
			c-0.96-0.55-1.89-0.98-2.81-1.35l-3.44-8.43c-2.18-0.6-4.23-0.8-6.13-0.62l1.53,8.22c-1.52,0.4-2.86,1.17-3.98,2.27l-6.4-5.45
			c-1.11,1.54-1.97,3.39-2.54,5.56l5.61,7.19c-0.14,0.97-0.24,1.99-0.24,3.09c0,1.1,0.1,2.23,0.24,3.37l-5.61,0.71
			c0.57,2.83,1.44,5.68,2.54,8.5l6.4,1.93c1.12,2.39,2.46,4.71,3.98,6.87l-1.53,6.45c1.9,2.37,3.95,4.54,6.13,6.46l3.44-4.45
			c0.92,0.69,1.85,1.34,2.81,1.9c0.96,0.55,1.89,0.98,2.81,1.35l3.44,8.43c2.18,0.6,4.23,0.8,6.13,0.62l-1.53-8.22
			c1.52-0.4,2.86-1.17,3.98-2.27l6.4,5.45c1.11-1.54,1.97-3.39,2.54-5.56l-5.61-7.19C306.17,188.91,306.27,187.89,306.27,186.79z
			 M288.05,192.01c-7.67-4.43-13.89-15.15-13.89-23.95c0-8.8,6.22-12.35,13.89-7.92c7.67,4.43,13.89,15.15,13.89,23.95
			C301.94,192.89,295.72,196.43,288.05,192.01z"/>
		<polygon class="st1" points="290.44,150.62 286.99,142.19 281.62,145.28 285.06,153.71 		"/>
		<path class="st0" d="M285.06,153.71c0.92,0.37,1.85,0.8,2.81,1.35c0.96,0.55,1.89,1.2,2.81,1.9l3.44-4.45l0,0
			c0,0-0.58-0.37-0.88-0.54c-0.96-0.55-1.89-0.98-2.81-1.35L285.06,153.71z"/>
		<path class="st0" d="M286.99,142.19c-2.18-0.6-4.23-0.79-6.13-0.62l-5.38,3.09c1.9-0.18,3.95,0.02,6.13,0.62L286.99,142.19z"/>
		<path class="st0" d="M305.63,155.87c-1.9-2.37-3.95-4.54-6.13-6.46l-5.38,3.09c2.17,1.91,4.23,4.09,6.13,6.46L305.63,155.87z"/>
		<polygon class="st1" points="300.25,158.96 298.72,165.42 304.1,162.33 305.63,155.87 		"/>
		<path class="st1" d="M298.72,165.42c1.52,2.16,2.86,4.47,3.98,6.87l5.38-3.09c-1.12-2.39-2.46-4.71-3.98-6.87L298.72,165.42z"/>
		<polygon class="st0" points="302.7,172.28 309.1,174.22 314.48,171.13 308.08,169.19 		"/>
		<path class="st1" d="M309.1,174.22c1.11,2.81,1.97,5.67,2.54,8.5l5.38-3.09c-0.57-2.83-1.44-5.68-2.54-8.5L309.1,174.22z"/>
		<path class="st1" d="M277.02,152.89l-0.45-2.39l-4.55-3.88l-5.38,3.09l6.4,5.45C274.16,154.06,275.5,153.29,277.02,152.89z"/>
		<path class="st1" d="M311.64,197.08c-0.57,2.17-1.44,4.03-2.54,5.56l5.38-3.09c1.11-1.54,1.97-3.39,2.54-5.56L311.64,197.08z"/>
		<path class="st1" d="M311.41,186.79c0.14-0.97,0.24-1.99,0.24-3.09c0-0.32-0.02-0.65-0.04-0.98l-5.58,0.71
			c0.14,1.14,0.24,2.27,0.24,3.37c0,1.1-0.1,2.12-0.24,3.09L311.41,186.79z"/>
		<polygon class="st0" points="306.03,189.88 311.64,197.08 317.02,193.99 311.41,186.79 		"/>
		<path class="st1" d="M302.7,197.18c-1.12,1.1-2.46,1.87-3.98,2.27l1.53,8.22l5.38-3.09l-1.09-5.83L302.7,197.18z"/>
		<path class="st0" d="M269.51,166.45l-5.41,3.18l5.61-0.71C269.61,168.09,269.55,167.27,269.51,166.45z"/>
		<path class="st1" d="M285.06,195.38l-3.44,4.45l5.42-3.08C286.37,196.32,285.71,195.87,285.06,195.38z"/>
		<g>
			<path class="st3" d="M276.37,153.26l-0.02-0.08c-0.26,0.1-0.5,0.22-0.75,0.34C275.86,153.42,276.11,153.33,276.37,153.26z"/>
			<path class="st3" d="M269.03,169.01l-4.66,0.59c0.02,0.09,0.04,0.18,0.06,0.27l4.63-0.59
				C269.05,169.2,269.04,169.1,269.03,169.01z"/>
			<path class="st3" d="M299.95,159.31l-1.53,6.45c1.52,2.16,2.86,4.47,3.98,6.87l6.4,1.93c1.07,2.72,1.91,5.49,2.48,8.23l0.63-0.1
				c-0.57-2.83-1.44-5.68-2.54-8.5l-6.4-1.93c-1.12-2.39-2.46-4.71-3.98-6.87l1.53-6.45c-1.9-2.37-3.95-4.54-6.13-6.46l-0.21,0.71
				C296.23,155.02,298.16,157.08,299.95,159.31z"/>
			<path class="st3" d="M288.1,191.9c-7.67-4.43-13.89-15.15-13.89-23.95c0-3.89,1.22-6.74,3.24-8.33c-2.33,1.5-3.76,4.49-3.76,8.71
				c0,8.8,6.22,19.52,13.89,23.95c3.87,2.24,7.37,2.43,9.89,0.95c-0.19,0.06-0.38,0.09-0.57,0.14
				C294.49,194.24,291.43,193.83,288.1,191.9z"/>
			<path class="st3" d="M299.76,199.18c0.92-0.33,1.77-0.8,2.53-1.42l-0.24-0.2C301.37,198.23,300.59,198.76,299.76,199.18z"/>
			<path class="st3" d="M272.84,155.3c-0.23,0.01,0-0.18,0.24-0.37l-6.16-5.25c-0.17,0.24-0.33,0.51-0.04,0.54L272.84,155.3z"/>
			<path class="st3" d="M298.57,199.83l1.47,7.87c-0.17-0.01,0.16-0.01,0.49-0.04l-1.52-8.14
				C298.7,199.63,298.39,199.74,298.57,199.83z"/>
			<path class="st3" d="M306.54,186.77c0-1.01-0.09-2.05-0.21-3.09l-0.56,0.04c0.14,1.14,0.24,2.27,0.24,3.37
				c0,1.1-0.1,2.12-0.24,3.09l5.61,7.19c-0.48,1.82-1.18,3.42-2.05,4.8l0.04,0.45c1.11-1.54,1.97-3.39,2.54-5.56l-5.61-7.19
				C306.44,188.89,306.54,187.87,306.54,186.77z"/>
			<path class="st3" d="M281.38,145.51l3.44,8.43c0.92,0.37,1.85,0.8,2.81,1.35c0.96,0.55,1.89,1.2,2.81,1.9l0.11-0.53
				c-0.79-0.58-1.59-1.14-2.42-1.61c-0.96-0.55-1.89-0.98-2.81-1.35l-3.44-8.43c-2.18-0.6-4.23-0.79-6.13-0.62l0.07,0.35
				C277.44,144.95,279.58,145.01,281.38,145.51z"/>
			<path class="st3" d="M284.4,195.75l-2.88,3.72c0.12,0.11,0.24,0.23,0.36,0.33l2.92-3.77
				C284.67,195.94,284.53,195.85,284.4,195.75z"/>
		</g>
	</g>
	<g>
		<path class="st1" d="M290.78,123.65c-11.54-6.66-20.89-22.79-20.89-36.03c0-4.91,1.3-8.71,3.51-11.23
			c-6.33,0.46-10.61,5.76-10.61,14.7c0,13.24,9.35,29.37,20.89,36.03c7.25,4.18,13.61,3.61,17.35-0.67
			C298,126.68,294.51,125.81,290.78,123.65z"/>
		<path class="st2" d="M311.08,119.29c0-1.66-0.14-3.35-0.36-5.06l8.44-1.07c-0.86-4.25-2.16-8.55-3.83-12.78l-9.62-2.91
			c-1.68-3.6-3.7-7.08-5.99-10.33l2.31-9.71c-2.85-3.56-5.94-6.84-9.21-9.71l-5.18,6.7c-1.38-1.04-2.79-2.02-4.23-2.85
			c-1.44-0.83-2.85-1.48-4.23-2.03L274,56.84c-3.27-0.9-6.36-1.2-9.21-0.93l2.31,12.37c-2.29,0.6-4.31,1.75-5.99,3.41l-9.62-8.2
			c-1.67,2.31-2.97,5.11-3.83,8.36l8.44,10.82c-0.21,1.46-0.36,3-0.36,4.65c0,1.66,0.14,3.35,0.36,5.06l-8.44,1.07
			c0.86,4.25,2.16,8.55,3.83,12.78l9.62,2.91c1.68,3.6,3.7,7.08,5.99,10.33l-2.31,9.71c2.85,3.56,5.94,6.84,9.21,9.71l5.18-6.7
			c1.38,1.04,2.79,2.02,4.23,2.85c1.44,0.83,2.85,1.48,4.23,2.03l5.18,12.68c3.27,0.9,6.36,1.2,9.21,0.93l-2.31-12.37
			c2.29-0.6,4.31-1.75,5.99-3.41l9.62,8.2c1.67-2.31,2.97-5.11,3.83-8.36l-8.44-10.82C310.93,122.47,311.08,120.94,311.08,119.29z
			 M283.67,127.13c-11.54-6.66-20.89-22.79-20.89-36.03s9.35-18.57,20.89-11.91c11.54,6.66,20.89,22.79,20.89,36.03
			S295.21,133.79,283.67,127.13z"/>
		<polygon class="st1" points="287.27,64.88 282.09,52.2 274,56.84 279.17,69.52 		"/>
		<path class="st0" d="M279.17,69.52c1.38,0.55,2.79,1.2,4.23,2.03s2.85,1.81,4.23,2.85l5.18-6.7l0,0c0,0-0.88-0.55-1.32-0.81
			c-1.44-0.83-2.85-1.48-4.23-2.03L279.17,69.52z"/>
		<path class="st0" d="M282.09,52.2c-3.27-0.9-6.36-1.2-9.21-0.93l-8.09,4.65c2.85-0.27,5.94,0.03,9.21,0.93L282.09,52.2z"/>
		<path class="st0" d="M310.13,72.78c-2.85-3.56-5.94-6.84-9.21-9.71l-8.09,4.65c3.27,2.87,6.36,6.15,9.21,9.71L310.13,72.78z"/>
		<polygon class="st1" points="302.03,77.42 299.73,87.13 307.82,82.48 310.13,72.78 		"/>
		<path class="st1" d="M299.73,87.13c2.29,3.25,4.31,6.73,5.99,10.33l8.09-4.65c-1.68-3.6-3.7-7.08-5.99-10.33L299.73,87.13z"/>
		<polygon class="st0" points="305.72,97.46 315.34,100.37 323.43,95.72 313.81,92.81 		"/>
		<path class="st1" d="M315.34,100.37c1.67,4.23,2.97,8.53,3.83,12.78l8.09-4.65c-0.86-4.25-2.16-8.55-3.83-12.78L315.34,100.37z"/>
		<path class="st1" d="M267.09,68.29l-0.67-3.6l-6.85-5.84l-8.09,4.65l9.62,8.2C262.78,70.04,264.79,68.89,267.09,68.29z"/>
		<path class="st1" d="M319.16,134.75c-0.86,3.26-2.16,6.05-3.83,8.36l8.09-4.65c1.67-2.31,2.97-5.11,3.83-8.36L319.16,134.75z"/>
		<path class="st1" d="M318.81,119.29c0.21-1.46,0.36-3,0.36-4.65c0-0.49-0.03-0.98-0.06-1.48l-8.39,1.06
			c0.21,1.71,0.36,3.41,0.36,5.06c0,1.66-0.14,3.19-0.36,4.65L318.81,119.29z"/>
		<polygon class="st0" points="310.72,123.94 319.16,134.75 327.26,130.11 318.81,119.29 		"/>
		<path class="st1" d="M305.72,134.92c-1.68,1.66-3.7,2.81-5.99,3.41l2.31,12.37l8.09-4.65l-1.63-8.77L305.72,134.92z"/>
		<path class="st0" d="M255.79,88.69l-8.14,4.78l8.44-1.07C255.94,91.15,255.84,89.91,255.79,88.69z"/>
		<path class="st1" d="M279.17,132.21l-5.18,6.7l8.15-4.64C281.14,133.62,280.15,132.94,279.17,132.21z"/>
		<g>
			<path class="st3" d="M266.1,68.85l-0.02-0.12c-0.39,0.15-0.75,0.32-1.12,0.51C265.33,69.09,265.71,68.95,266.1,68.85z"/>
			<path class="st3" d="M255.07,92.54l-7.01,0.89c0.03,0.14,0.06,0.27,0.09,0.41l6.96-0.88C255.09,92.82,255.08,92.68,255.07,92.54z
				"/>
			<path class="st3" d="M301.58,77.95l-2.31,9.71c2.29,3.25,4.31,6.73,5.99,10.33l9.62,2.91c1.61,4.1,2.87,8.26,3.73,12.37
				l0.95-0.16c-0.86-4.25-2.16-8.55-3.83-12.78l-9.62-2.91c-1.68-3.6-3.7-7.08-5.99-10.33l2.31-9.71c-2.85-3.56-5.94-6.84-9.21-9.71
				l-0.32,1.07C295.98,71.5,298.89,74.59,301.58,77.95z"/>
			<path class="st3" d="M283.74,126.97c-11.54-6.66-20.89-22.79-20.89-36.03c0-5.85,1.83-10.13,4.87-12.54
				c-3.51,2.26-5.66,6.76-5.66,13.1c0,13.24,9.35,29.37,20.89,36.03c5.82,3.36,11.09,3.66,14.88,1.43
				c-0.28,0.09-0.57,0.14-0.86,0.21C293.36,130.48,288.76,129.87,283.74,126.97z"/>
			<path class="st3" d="M301.28,137.91c1.39-0.5,2.66-1.21,3.81-2.13l-0.36-0.3C303.71,136.49,302.54,137.29,301.28,137.91z"/>
			<path class="st3" d="M260.79,71.92c-0.35,0.01,0-0.27,0.36-0.56l-9.26-7.9c-0.26,0.36-0.5,0.76-0.06,0.81L260.79,71.92z"/>
			<path class="st3" d="M299.5,138.89l2.21,11.84c-0.26-0.01,0.25-0.02,0.73-0.06l-2.28-12.25
				C299.7,138.6,299.23,138.76,299.5,138.89z"/>
			<path class="st3" d="M311.48,119.25c0-1.52-0.13-3.08-0.32-4.65l-0.84,0.06c0.21,1.71,0.36,3.41,0.36,5.06
				c0,1.66-0.14,3.19-0.36,4.65l8.44,10.82c-0.72,2.75-1.78,5.14-3.08,7.22l0.05,0.67c1.67-2.31,2.97-5.11,3.83-8.36l-8.44-10.82
				C311.34,122.43,311.48,120.9,311.48,119.25z"/>
			<path class="st3" d="M273.64,57.18l5.18,12.68c1.38,0.55,2.79,1.2,4.23,2.03c1.44,0.83,2.85,1.81,4.23,2.85l0.16-0.8
				c-1.19-0.88-2.4-1.71-3.63-2.42c-1.44-0.83-2.85-1.48-4.23-2.03l-5.18-12.68c-3.27-0.9-6.36-1.2-9.21-0.93l0.1,0.53
				C267.72,56.35,270.93,56.43,273.64,57.18z"/>
			<path class="st3" d="M278.19,132.77l-4.33,5.6c0.18,0.16,0.36,0.34,0.54,0.5l4.38-5.67
				C278.59,133.05,278.39,132.92,278.19,132.77z"/>
		</g>
	</g>
	<path class="st4" d="M293.86,51.26c0.06-1.34,0.98-1.92,2.05-1.3c1.07,0.62,1.89,2.2,1.82,3.54c-0.06,1.34-0.98,1.92-2.05,1.3
		C294.62,54.19,293.8,52.6,293.86,51.26z"/>
	<path class="st4" d="M287.88,211.3c0.04-0.89,0.65-1.28,1.37-0.87c0.71,0.41,1.25,1.47,1.21,2.36c-0.04,0.89-0.65,1.28-1.37,0.87
		C288.38,213.24,287.84,212.19,287.88,211.3z"/>
	<g>
		<path class="st4" d="M326.99,146.59c-0.15,0-0.3-0.07-0.39-0.19c-0.13-0.16-0.14-0.38-0.04-0.56l2.4-4.11
			c0.14-0.24,0.45-0.32,0.68-0.18c0.24,0.14,0.32,0.45,0.18,0.68l-1.75,3l3.54-1.09c0.26-0.08,0.54,0.07,0.63,0.33
			c0.08,0.26-0.07,0.54-0.33,0.63l-4.76,1.47C327.09,146.59,327.04,146.59,326.99,146.59z"/>
	</g>
	<g>
		<path class="st5" d="M285.46,164.72c1.87,1.08,3.52,3.15,4.46,5.38c0.02,0.04,1.06-0.33,1.48-0.5c0.92-0.37,2.12-0.23,3.43,0.53
			c2.92,1.69,5.29,5.77,5.29,9.12c0,6.13-10.49,8.25-10.49,8.25s-9.97-13.33-9.97-19.45c0-1.67-0.71-2.19,0.24-2.73
			c0.08-0.05,1.98-1.06,2.07-1.09C282.9,163.81,284.13,163.94,285.46,164.72z"/>
		<path class="st4" d="M283.7,165.67c2.04,1.18,3.8,3.52,4.68,5.96c0.88-1.42,2.65-1.73,4.68-0.55c2.92,1.69,5.29,5.77,5.29,9.12
			c0,6.13-9.97,7.94-9.97,7.94s-9.97-13.33-9.97-19.45C278.41,165.33,280.78,163.98,283.7,165.67z"/>
		<g>
			<path class="st6" d="M283.41,165.8c2.04,1.18,4.04,3.52,4.92,5.97c0.18-0.29-0.07-0.18,0.18-0.38c-0.92-2.33-2.61-4.52-4.55-5.64
				c-1.6-0.92-2.81-1.14-3.76-0.55C281.09,164.93,282.2,165.1,283.41,165.8z"/>
			<path class="st6" d="M293.21,171.05c-1.59-0.92-2.84-0.94-3.63-0.45c0.89-0.27,1.99-0.1,3.2,0.6c2.92,1.69,5.29,5.77,5.29,9.12
				c0,2.85-2.15,4.76-4.46,6c2.58-1.21,4.89-2.98,4.89-6.15C298.49,176.82,296.13,172.74,293.21,171.05z"/>
		</g>
	</g>
	<g>
		<path class="st4" d="M328.51,145.91l-0.67-0.74c5.38-4.89,8.23-12.85,8.23-23.03c0-25.34-17.97-56.33-40.05-69.08l0.5-0.87
			c22.36,12.91,40.55,44.29,40.55,69.95C337.06,132.61,334.11,140.83,328.51,145.91z"/>
	</g>
	<g>
		<g>
			<path class="st2" d="M344.38,128.85C344.37,128.85,344.37,128.85,344.38,128.85c-0.28,0-0.5-0.23-0.5-0.51
				c0-0.33,0.01-0.66,0.01-0.99c0-0.28,0.22-0.5,0.5-0.5s0.5,0.22,0.5,0.5c0,0.34,0,0.68-0.01,1.01
				C344.87,128.63,344.65,128.85,344.38,128.85z"/>
		</g>
		<g>
			<path class="st2" d="M316.85,163.5c-0.27,0-0.5-0.22-0.5-0.5c0-0.28,0.22-0.5,0.5-0.5c0.65,0,1.31-0.03,1.95-0.08
				c0.27-0.02,0.51,0.19,0.54,0.46c0.02,0.28-0.19,0.51-0.46,0.54C318.21,163.46,317.53,163.49,316.85,163.5
				C316.86,163.5,316.85,163.5,316.85,163.5z M313.88,163.38c-0.01,0-0.03,0-0.04,0c-0.66-0.06-1.33-0.13-2-0.23
				c-0.27-0.04-0.46-0.29-0.43-0.56c0.04-0.27,0.3-0.46,0.56-0.43c0.66,0.09,1.3,0.17,1.95,0.22c0.28,0.02,0.48,0.26,0.46,0.54
				C314.36,163.18,314.14,163.38,313.88,163.38z M321.79,163.04c-0.24,0-0.45-0.17-0.49-0.41c-0.05-0.27,0.13-0.53,0.4-0.58
				c0.64-0.12,1.28-0.26,1.9-0.42c0.26-0.07,0.54,0.09,0.61,0.36c0.07,0.27-0.09,0.54-0.36,0.61c-0.64,0.17-1.31,0.32-1.97,0.44
				C321.85,163.04,321.82,163.04,321.79,163.04z M326.55,161.68c-0.2,0-0.39-0.12-0.46-0.32c-0.1-0.26,0.02-0.55,0.28-0.65
				c0.6-0.24,1.2-0.5,1.77-0.79c0.25-0.12,0.55-0.02,0.67,0.23c0.12,0.25,0.02,0.55-0.23,0.67c-0.6,0.3-1.22,0.57-1.85,0.82
				C326.68,161.67,326.61,161.68,326.55,161.68z M330.94,159.4c-0.16,0-0.32-0.08-0.42-0.22c-0.15-0.23-0.09-0.54,0.14-0.69
				c0.54-0.36,1.07-0.74,1.58-1.14c0.22-0.17,0.53-0.13,0.7,0.08c0.17,0.22,0.13,0.53-0.09,0.7c-0.53,0.41-1.08,0.81-1.64,1.18
				C331.13,159.38,331.04,159.4,330.94,159.4z M334.78,156.27c-0.13,0-0.26-0.05-0.35-0.15c-0.2-0.19-0.2-0.51,0-0.71
				c0.46-0.46,0.9-0.94,1.32-1.43c0.18-0.21,0.5-0.23,0.71-0.05c0.21,0.18,0.23,0.5,0.05,0.71c-0.44,0.51-0.9,1.01-1.37,1.48
				C335.04,156.22,334.91,156.27,334.78,156.27z M337.93,152.45c-0.1,0-0.2-0.03-0.28-0.09c-0.23-0.16-0.29-0.47-0.13-0.7
				c0.37-0.53,0.72-1.09,1.05-1.65c0.14-0.24,0.45-0.32,0.68-0.18c0.24,0.14,0.32,0.45,0.18,0.68c-0.34,0.58-0.7,1.15-1.08,1.7
				C338.25,152.37,338.09,152.45,337.93,152.45z M340.39,148.14c-0.07,0-0.14-0.02-0.21-0.05c-0.25-0.12-0.36-0.42-0.24-0.67
				c0.27-0.58,0.54-1.18,0.78-1.79c0.1-0.26,0.4-0.38,0.65-0.28c0.26,0.1,0.38,0.4,0.28,0.65c-0.25,0.63-0.52,1.25-0.81,1.85
				C340.76,148.04,340.58,148.14,340.39,148.14z M342.18,143.52c-0.05,0-0.1-0.01-0.15-0.02c-0.26-0.08-0.41-0.36-0.33-0.63
				c0.19-0.62,0.38-1.24,0.54-1.88c0.07-0.27,0.35-0.43,0.61-0.36c0.27,0.07,0.43,0.34,0.36,0.61c-0.17,0.66-0.36,1.3-0.56,1.93
				C342.59,143.39,342.4,143.52,342.18,143.52z M343.4,138.71c-0.03,0-0.06,0-0.1-0.01c-0.27-0.05-0.45-0.32-0.4-0.59
				c0.12-0.63,0.24-1.28,0.34-1.94c0.04-0.27,0.29-0.46,0.57-0.42c0.27,0.04,0.46,0.3,0.42,0.57c-0.1,0.67-0.22,1.33-0.34,1.98
				C343.84,138.55,343.63,138.71,343.4,138.71z M344.11,133.8c-0.02,0-0.03,0-0.05,0c-0.27-0.03-0.48-0.27-0.45-0.55
				c0.06-0.65,0.11-1.3,0.16-1.96c0.02-0.27,0.23-0.48,0.53-0.47c0.28,0.02,0.49,0.25,0.47,0.53c-0.04,0.67-0.1,1.34-0.16,2
				C344.58,133.61,344.36,133.8,344.11,133.8z"/>
		</g>
		<g>
			<path class="st2" d="M308.92,162.62c-0.04,0-0.07,0-0.11-0.01c-0.33-0.07-0.66-0.15-0.99-0.23c-0.27-0.07-0.43-0.34-0.37-0.61
				c0.07-0.27,0.34-0.43,0.61-0.37c0.32,0.08,0.64,0.16,0.96,0.23c0.27,0.06,0.44,0.33,0.38,0.6
				C309.36,162.46,309.15,162.62,308.92,162.62z"/>
		</g>
	</g>
	<g>
		<g>
			<path class="st2" d="M244.89,83.47c-0.24,0-0.45-0.17-0.49-0.41c-0.06-0.33-0.12-0.66-0.17-0.99c-0.05-0.27,0.14-0.53,0.41-0.58
				c0.27-0.05,0.53,0.14,0.58,0.41c0.05,0.33,0.11,0.65,0.17,0.98c0.05,0.27-0.13,0.53-0.4,0.58
				C244.95,83.46,244.92,83.47,244.89,83.47z"/>
		</g>
		<g>
			<path class="st2" d="M337.08,93.63c-0.2,0-0.38-0.12-0.46-0.31c-0.25-0.62-0.51-1.24-0.77-1.86c-0.11-0.25,0.01-0.55,0.26-0.66
				c0.26-0.11,0.55,0.01,0.66,0.26c0.27,0.63,0.53,1.25,0.78,1.88c0.1,0.26-0.02,0.55-0.28,0.65
				C337.2,93.61,337.14,93.63,337.08,93.63z M335.07,88.97c-0.19,0-0.37-0.11-0.45-0.29c-0.28-0.61-0.56-1.22-0.85-1.83
				c-0.12-0.25-0.01-0.55,0.24-0.67c0.25-0.12,0.55-0.01,0.67,0.24c0.29,0.61,0.58,1.23,0.86,1.85c0.11,0.25,0,0.55-0.25,0.66
				C335.21,88.96,335.14,88.97,335.07,88.97z M332.87,84.41c-0.18,0-0.36-0.1-0.45-0.27c-0.3-0.6-0.61-1.2-0.93-1.79
				c-0.13-0.24-0.04-0.55,0.21-0.68c0.25-0.13,0.55-0.04,0.68,0.21c0.32,0.6,0.63,1.2,0.94,1.81c0.13,0.25,0.03,0.55-0.22,0.67
				C333.02,84.39,332.95,84.41,332.87,84.41z M330.48,79.94c-0.17,0-0.34-0.09-0.44-0.25c-0.33-0.59-0.66-1.17-1-1.75
				c-0.14-0.24-0.06-0.54,0.18-0.68c0.24-0.14,0.54-0.06,0.68,0.18c0.34,0.59,0.68,1.17,1.01,1.77c0.14,0.24,0.05,0.55-0.19,0.68
				C330.65,79.92,330.56,79.94,330.48,79.94z M244.27,79.48c-0.25,0-0.46-0.18-0.5-0.43c-0.09-0.68-0.17-1.35-0.24-2.02
				c-0.03-0.27,0.17-0.52,0.44-0.55c0.27-0.03,0.52,0.17,0.55,0.44c0.07,0.66,0.15,1.33,0.24,2c0.04,0.27-0.16,0.52-0.43,0.56
				C244.31,79.48,244.29,79.48,244.27,79.48z M327.91,75.57c-0.17,0-0.33-0.08-0.43-0.24c-0.35-0.57-0.71-1.14-1.07-1.71
				c-0.15-0.23-0.08-0.54,0.15-0.69c0.23-0.15,0.54-0.08,0.69,0.15c0.37,0.57,0.72,1.14,1.08,1.72c0.14,0.23,0.07,0.54-0.16,0.69
				C328.09,75.55,328,75.57,327.91,75.57z M243.76,74.44c-0.26,0-0.48-0.2-0.5-0.47c-0.05-0.68-0.08-1.36-0.11-2.04
				c-0.01-0.28,0.2-0.51,0.48-0.52c0.01,0,0.01,0,0.02,0c0.27,0,0.49,0.21,0.5,0.48c0.03,0.67,0.06,1.34,0.11,2.01
				c0.02,0.28-0.19,0.51-0.46,0.53C243.78,74.44,243.77,74.44,243.76,74.44z M325.17,71.32c-0.16,0-0.32-0.08-0.41-0.22
				c-0.38-0.56-0.76-1.11-1.14-1.66c-0.16-0.23-0.1-0.54,0.12-0.7c0.22-0.16,0.54-0.1,0.7,0.12c0.39,0.55,0.77,1.11,1.15,1.67
				c0.16,0.23,0.09,0.54-0.13,0.69C325.36,71.29,325.27,71.32,325.17,71.32z M243.6,69.38C243.6,69.38,243.6,69.38,243.6,69.38
				c-0.28,0-0.5-0.23-0.5-0.5c0-0.69,0.02-1.37,0.04-2.04c0.01-0.27,0.23-0.48,0.5-0.48c0.01,0,0.01,0,0.02,0
				c0.28,0.01,0.49,0.24,0.48,0.52c-0.02,0.66-0.04,1.33-0.04,2.01C244.1,69.16,243.88,69.38,243.6,69.38z M322.26,67.19
				c-0.15,0-0.3-0.07-0.4-0.2c-0.4-0.54-0.8-1.08-1.21-1.61c-0.17-0.22-0.13-0.53,0.09-0.7c0.22-0.17,0.53-0.13,0.7,0.09
				c0.41,0.54,0.82,1.08,1.22,1.62c0.16,0.22,0.12,0.54-0.11,0.7C322.46,67.16,322.36,67.19,322.26,67.19z M243.82,64.33
				c-0.01,0-0.03,0-0.04,0c-0.28-0.02-0.48-0.27-0.46-0.54c0.06-0.69,0.13-1.37,0.21-2.03c0.03-0.27,0.29-0.47,0.56-0.44
				c0.27,0.03,0.47,0.28,0.44,0.56c-0.08,0.65-0.15,1.32-0.21,2C244.3,64.13,244.08,64.33,243.82,64.33z M319.17,63.18
				c-0.15,0-0.29-0.06-0.39-0.19c-0.42-0.52-0.85-1.04-1.28-1.56c-0.18-0.21-0.15-0.53,0.06-0.7c0.21-0.18,0.52-0.15,0.7,0.06
				c0.43,0.52,0.86,1.04,1.29,1.57c0.17,0.22,0.14,0.53-0.08,0.7C319.39,63.15,319.28,63.18,319.17,63.18z M315.91,59.32
				c-0.14,0-0.28-0.06-0.38-0.17c-0.44-0.5-0.89-1-1.34-1.49c-0.19-0.2-0.17-0.52,0.03-0.71c0.2-0.19,0.52-0.17,0.71,0.03
				c0.46,0.5,0.91,1,1.36,1.51c0.18,0.21,0.16,0.52-0.04,0.71C316.14,59.28,316.02,59.32,315.91,59.32z M244.49,59.31
				c-0.03,0-0.06,0-0.09-0.01c-0.27-0.05-0.45-0.31-0.4-0.58c0.13-0.68,0.26-1.35,0.41-2c0.06-0.27,0.33-0.44,0.6-0.38
				c0.27,0.06,0.44,0.33,0.38,0.6c-0.15,0.64-0.28,1.29-0.4,1.96C244.93,59.14,244.72,59.31,244.49,59.31z M312.47,55.61
				c-0.13,0-0.26-0.05-0.36-0.15c-0.47-0.48-0.94-0.96-1.42-1.43c-0.2-0.19-0.2-0.51,0-0.71c0.19-0.2,0.51-0.2,0.71,0
				c0.48,0.48,0.96,0.96,1.43,1.45c0.19,0.2,0.19,0.51-0.01,0.71C312.72,55.56,312.6,55.61,312.47,55.61z M245.67,54.39
				c-0.05,0-0.1-0.01-0.15-0.02c-0.26-0.08-0.41-0.36-0.33-0.62c0.2-0.66,0.42-1.31,0.65-1.95c0.09-0.26,0.38-0.39,0.64-0.3
				c0.26,0.09,0.39,0.38,0.3,0.64c-0.22,0.62-0.43,1.25-0.63,1.9C246.08,54.26,245.88,54.39,245.67,54.39z M308.86,52.06
				c-0.12,0-0.24-0.04-0.34-0.13c-0.49-0.46-0.99-0.91-1.49-1.36c-0.21-0.18-0.22-0.5-0.04-0.71c0.18-0.21,0.5-0.22,0.71-0.04
				c0.5,0.45,1.01,0.91,1.5,1.37c0.2,0.19,0.21,0.5,0.03,0.71C309.12,52.01,308.99,52.06,308.86,52.06z M247.45,49.66
				c-0.07,0-0.14-0.01-0.21-0.05c-0.25-0.12-0.36-0.41-0.25-0.66c0.29-0.63,0.59-1.24,0.91-1.84c0.13-0.24,0.43-0.33,0.68-0.2
				c0.24,0.13,0.33,0.43,0.2,0.68c-0.31,0.58-0.61,1.17-0.89,1.78C247.82,49.56,247.64,49.66,247.45,49.66z M305.06,48.72
				c-0.11,0-0.23-0.04-0.32-0.12c-0.52-0.43-1.04-0.86-1.56-1.27c-0.22-0.17-0.25-0.49-0.08-0.7c0.17-0.22,0.49-0.25,0.7-0.08
				c0.53,0.42,1.06,0.85,1.58,1.29c0.21,0.18,0.24,0.49,0.06,0.7C305.34,48.65,305.2,48.72,305.06,48.72z M301.08,45.59
				c-0.1,0-0.21-0.03-0.3-0.1c-0.54-0.4-1.09-0.79-1.63-1.18c-0.23-0.16-0.28-0.47-0.12-0.7c0.16-0.23,0.47-0.28,0.7-0.12
				c0.55,0.39,1.11,0.79,1.65,1.19c0.22,0.16,0.27,0.48,0.11,0.7C301.38,45.52,301.23,45.59,301.08,45.59z M249.92,45.25
				c-0.1,0-0.19-0.03-0.28-0.08c-0.23-0.15-0.29-0.47-0.14-0.69c0.39-0.57,0.79-1.14,1.21-1.67c0.17-0.22,0.48-0.26,0.7-0.08
				c0.22,0.17,0.25,0.48,0.09,0.7c-0.4,0.51-0.79,1.05-1.17,1.61C250.23,45.17,250.08,45.25,249.92,45.25z M296.92,42.71
				c-0.09,0-0.19-0.03-0.27-0.08c-0.57-0.36-1.14-0.72-1.71-1.06c-0.24-0.14-0.31-0.45-0.17-0.69c0.14-0.24,0.45-0.31,0.69-0.17
				c0.58,0.35,1.16,0.71,1.73,1.08c0.23,0.15,0.3,0.46,0.15,0.69C297.24,42.63,297.08,42.71,296.92,42.71z M253.11,41.33
				c-0.13,0-0.25-0.05-0.35-0.14c-0.2-0.19-0.2-0.51,0-0.71c0.48-0.49,0.99-0.96,1.51-1.41c0.21-0.18,0.52-0.16,0.71,0.05
				c0.18,0.21,0.16,0.52-0.05,0.71c-0.5,0.43-0.98,0.88-1.45,1.35C253.36,41.29,253.24,41.33,253.11,41.33z M292.56,40.12
				c-0.08,0-0.16-0.02-0.24-0.06c-0.6-0.32-1.19-0.64-1.78-0.93c-0.25-0.12-0.34-0.43-0.22-0.67c0.12-0.25,0.42-0.35,0.67-0.22
				c0.6,0.3,1.2,0.62,1.81,0.95c0.24,0.13,0.33,0.44,0.2,0.68C292.91,40.03,292.74,40.12,292.56,40.12z M257,38.12
				c-0.16,0-0.32-0.08-0.42-0.22c-0.15-0.23-0.09-0.54,0.14-0.69c0.57-0.38,1.17-0.74,1.77-1.07c0.24-0.13,0.54-0.04,0.68,0.2
				c0.13,0.24,0.04,0.55-0.2,0.68c-0.58,0.31-1.15,0.66-1.69,1.02C257.2,38.1,257.1,38.12,257,38.12z M288.03,37.88
				c-0.07,0-0.14-0.01-0.2-0.04c-0.62-0.27-1.24-0.53-1.85-0.78c-0.26-0.1-0.38-0.39-0.28-0.65c0.1-0.26,0.39-0.38,0.65-0.28
				c0.62,0.25,1.25,0.51,1.88,0.79c0.25,0.11,0.37,0.41,0.25,0.66C288.4,37.77,288.22,37.88,288.03,37.88z M283.3,36.06
				c-0.05,0-0.1-0.01-0.16-0.02c-0.64-0.21-1.28-0.41-1.92-0.59c-0.27-0.07-0.42-0.35-0.35-0.62c0.08-0.27,0.35-0.42,0.62-0.35
				c0.65,0.18,1.3,0.38,1.96,0.6c0.26,0.09,0.41,0.37,0.32,0.63C283.71,35.93,283.51,36.06,283.3,36.06z M261.48,35.8
				c-0.2,0-0.39-0.12-0.47-0.32c-0.1-0.26,0.03-0.55,0.28-0.65c0.63-0.25,1.29-0.48,1.95-0.67c0.26-0.08,0.54,0.07,0.62,0.33
				c0.08,0.26-0.07,0.54-0.33,0.62c-0.64,0.19-1.27,0.41-1.87,0.65C261.61,35.78,261.55,35.8,261.48,35.8z M278.42,34.75
				c-0.03,0-0.07,0-0.1-0.01c-0.66-0.14-1.32-0.25-1.97-0.35c-0.27-0.04-0.46-0.3-0.42-0.57c0.04-0.27,0.3-0.46,0.57-0.42
				c0.67,0.1,1.34,0.22,2.02,0.36c0.27,0.06,0.44,0.32,0.39,0.59C278.86,34.59,278.65,34.75,278.42,34.75z M266.35,34.44
				c-0.24,0-0.45-0.17-0.49-0.41c-0.05-0.27,0.13-0.53,0.41-0.58c0.67-0.12,1.35-0.21,2.04-0.28c0.27-0.03,0.52,0.17,0.55,0.45
				c0.03,0.27-0.17,0.52-0.45,0.55c-0.66,0.07-1.32,0.16-1.97,0.27C266.41,34.43,266.38,34.44,266.35,34.44z M273.41,34.07
				c-0.01,0-0.02,0-0.03,0c-0.67-0.04-1.34-0.06-1.99-0.06c-0.28,0-0.5-0.22-0.5-0.5c0-0.28,0.22-0.5,0.5-0.5
				c0.68,0,1.36,0.02,2.05,0.07c0.28,0.02,0.49,0.25,0.47,0.53C273.89,33.87,273.67,34.07,273.41,34.07z"/>
		</g>
		<g>
			<path class="st2" d="M338.55,97.46c-0.2,0-0.4-0.13-0.47-0.33l-0.35-0.94c-0.1-0.26,0.04-0.55,0.29-0.64
				c0.25-0.1,0.55,0.04,0.64,0.29l0.35,0.94c0.09,0.26-0.04,0.55-0.3,0.64C338.67,97.45,338.61,97.46,338.55,97.46z"/>
		</g>
	</g>
	<g>
		<g>
			<path class="st4" d="M320.42,172.05c-0.2,0-0.38-0.12-0.46-0.31c-0.12-0.31-0.25-0.61-0.38-0.92c-0.11-0.25,0.01-0.55,0.27-0.65
				c0.26-0.11,0.55,0.01,0.65,0.27c0.13,0.31,0.26,0.62,0.38,0.93c0.1,0.26-0.02,0.55-0.28,0.65
				C320.54,172.04,320.48,172.05,320.42,172.05z"/>
		</g>
		<g>
			<path class="st4" d="M306.62,218.6C306.62,218.6,306.62,218.6,306.62,218.6c-0.67,0-1.35-0.04-2.02-0.1
				c-0.28-0.03-0.48-0.27-0.45-0.54c0.03-0.28,0.29-0.47,0.54-0.45c0.65,0.06,1.3,0.09,1.93,0.1c0.28,0,0.5,0.23,0.5,0.5
				C307.12,218.38,306.89,218.6,306.62,218.6z M309.58,218.4c-0.24,0-0.46-0.18-0.49-0.43c-0.04-0.27,0.15-0.53,0.42-0.57
				c0.64-0.1,1.27-0.23,1.88-0.39c0.27-0.07,0.54,0.09,0.61,0.35c0.07,0.27-0.09,0.54-0.35,0.61c-0.65,0.17-1.32,0.31-1.99,0.41
				C309.63,218.39,309.6,218.4,309.58,218.4z M301.71,218.05c-0.03,0-0.07,0-0.11-0.01c-0.64-0.14-1.3-0.3-1.95-0.49
				c-0.27-0.08-0.42-0.35-0.34-0.62c0.08-0.27,0.35-0.42,0.62-0.34c0.64,0.18,1.27,0.34,1.89,0.48c0.27,0.06,0.44,0.32,0.38,0.59
				C302.15,217.89,301.94,218.05,301.71,218.05z M314.3,216.98c-0.19,0-0.37-0.11-0.45-0.29c-0.12-0.25-0.01-0.55,0.24-0.67
				c0.57-0.27,1.14-0.58,1.68-0.92c0.23-0.15,0.54-0.08,0.69,0.15c0.15,0.23,0.08,0.54-0.15,0.69c-0.57,0.37-1.18,0.7-1.79,0.98
				C314.45,216.96,314.37,216.98,314.3,216.98z M296.98,216.6c-0.06,0-0.12-0.01-0.18-0.03c-0.61-0.24-1.23-0.5-1.85-0.79
				c-0.25-0.12-0.36-0.41-0.25-0.66c0.12-0.25,0.41-0.36,0.66-0.25c0.6,0.28,1.2,0.53,1.8,0.76c0.26,0.1,0.38,0.39,0.28,0.65
				C297.36,216.48,297.18,216.6,296.98,216.6z M318.38,214.21c-0.13,0-0.27-0.05-0.37-0.16c-0.19-0.2-0.18-0.52,0.03-0.71
				c0.46-0.43,0.91-0.9,1.33-1.39c0.18-0.21,0.5-0.24,0.7-0.06c0.21,0.18,0.24,0.49,0.06,0.7c-0.44,0.52-0.92,1.01-1.41,1.47
				C318.63,214.17,318.5,214.21,318.38,214.21z M321.49,210.38c-0.09,0-0.18-0.02-0.26-0.07c-0.24-0.14-0.31-0.45-0.17-0.69
				c0.33-0.54,0.64-1.11,0.93-1.69c0.12-0.25,0.43-0.35,0.67-0.23c0.25,0.12,0.35,0.42,0.23,0.67c-0.3,0.61-0.63,1.21-0.97,1.78
				C321.82,210.3,321.66,210.38,321.49,210.38z M323.57,205.9c-0.05,0-0.11-0.01-0.16-0.03c-0.26-0.09-0.4-0.37-0.31-0.63
				c0.21-0.6,0.4-1.23,0.56-1.86c0.07-0.27,0.34-0.43,0.61-0.36c0.27,0.07,0.43,0.34,0.36,0.61c-0.17,0.66-0.37,1.31-0.58,1.93
				C323.97,205.77,323.78,205.9,323.57,205.9z M324.76,201.1c-0.03,0-0.06,0-0.08-0.01c-0.27-0.04-0.46-0.3-0.41-0.58
				c0.1-0.63,0.19-1.27,0.26-1.93c0.03-0.28,0.28-0.48,0.55-0.44c0.27,0.03,0.47,0.28,0.44,0.55c-0.07,0.68-0.16,1.34-0.27,1.99
				C325.21,200.93,325,201.1,324.76,201.1z M325.23,196.18c0,0-0.01,0-0.02,0c-0.28-0.01-0.49-0.24-0.48-0.52
				c0.01-0.45,0.02-0.9,0.02-1.37l0-0.59c0-0.28,0.22-0.5,0.49-0.51c0.28,0.04,0.5,0.22,0.51,0.49l0,0.61c0,0.47-0.01,0.94-0.02,1.4
				C325.72,195.96,325.5,196.18,325.23,196.18z M325.11,191.23c-0.26,0-0.48-0.2-0.5-0.46c-0.05-0.65-0.11-1.3-0.18-1.96
				c-0.03-0.27,0.17-0.52,0.44-0.55c0.27-0.03,0.52,0.17,0.55,0.44c0.07,0.67,0.14,1.33,0.19,1.99c0.02,0.28-0.19,0.52-0.46,0.54
				C325.14,191.23,325.13,191.23,325.11,191.23z M324.51,186.31c-0.24,0-0.45-0.17-0.49-0.42c-0.11-0.64-0.23-1.29-0.36-1.93
				c-0.05-0.27,0.12-0.53,0.39-0.59c0.27-0.05,0.53,0.12,0.59,0.39c0.13,0.66,0.25,1.31,0.36,1.96c0.05,0.27-0.14,0.53-0.41,0.58
				C324.57,186.31,324.54,186.31,324.51,186.31z M323.5,181.46c-0.22,0-0.43-0.15-0.49-0.38c-0.16-0.63-0.33-1.27-0.51-1.9
				c-0.08-0.27,0.08-0.54,0.35-0.62c0.26-0.07,0.54,0.08,0.62,0.35c0.18,0.64,0.35,1.29,0.51,1.93c0.07,0.27-0.1,0.54-0.36,0.61
				C323.58,181.46,323.54,181.46,323.5,181.46z M322.12,176.7c-0.21,0-0.41-0.13-0.47-0.34c-0.21-0.62-0.42-1.24-0.64-1.86
				c-0.09-0.26,0.04-0.55,0.3-0.64c0.26-0.09,0.55,0.04,0.64,0.3c0.22,0.63,0.44,1.26,0.65,1.89c0.09,0.26-0.06,0.54-0.32,0.63
				C322.22,176.7,322.17,176.7,322.12,176.7z"/>
		</g>
		<g>
			<path class="st4" d="M292.47,214.47c-0.08,0-0.16-0.02-0.24-0.06c-0.29-0.16-0.59-0.33-0.88-0.5c-0.24-0.14-0.32-0.44-0.18-0.68
				c0.14-0.24,0.44-0.32,0.68-0.18c0.29,0.17,0.58,0.33,0.86,0.49c0.24,0.13,0.33,0.44,0.2,0.68
				C292.82,214.38,292.64,214.47,292.47,214.47z"/>
		</g>
	</g>
	<g>
		<path class="st4" d="M319.23,172.54c-0.01,0-0.02,0-0.03,0c-0.28-0.02-0.49-0.25-0.47-0.53l0.17-2.67
			c0.01-0.18,0.12-0.34,0.29-0.42c0.17-0.08,0.36-0.06,0.51,0.05l2.25,1.67c0.22,0.16,0.27,0.48,0.1,0.7
			c-0.16,0.22-0.48,0.27-0.7,0.1l-1.51-1.12l-0.11,1.75C319.72,172.34,319.5,172.54,319.23,172.54z"/>
	</g>
</g>
<path class="st3" d="M137.76,83.93c-0.02-3.28-4.64-5.95-10.33-5.96c-5.69-0.01-10.28,2.64-10.26,5.93c0.02,3,3.89,5.49,8.91,5.9
	l0.01,1.66c-0.95,0.15-1.65,0.64-1.65,1.24l0.03,5.68c0,0.71,1.01,1.29,2.24,1.29l1.69,0c1.23,0,2.23-0.57,2.22-1.28l-0.03-5.68
	c0-0.6-0.71-1.09-1.66-1.24l-0.01-1.66C133.93,89.4,137.78,86.93,137.76,83.93z"/>
<g>
	<path class="st0" d="M262.39,316.33L83.63,213.06c-6.92-4-12.53-14.72-12.53-23.94V26.49c0-9.23,5.61-13.47,12.53-9.47
		l178.77,103.27c6.92,4,12.53,14.72,12.53,23.94v162.62C274.93,316.09,269.32,320.33,262.39,316.33z"/>
	<path class="st7" d="M267.35,117.73L88.58,14.46c-2.74-1.58-5.27-1.87-7.33-1.08c-0.26,0.1-5.16,2.63-5.41,2.77
		c-0.01,0-0.01,0.01-0.01,0.01c2.14-1.04,4.84-0.84,7.8,0.86l178.77,103.27c6.92,4,12.53,14.72,12.53,23.94v162.62
		c0,5.76-2.19,9.57-5.51,10.66c0.27,0.02,0.61-0.09,1.1-0.37c0.16-0.09,5.35-2.9,5.51-3.01c2.38-1.67,3.86-5.09,3.86-9.84V141.68
		C279.88,132.45,274.27,121.73,267.35,117.73z"/>
	<path class="st8" d="M265.95,118.41L87.18,15.13c-2.74-1.58-5.27-1.87-7.33-1.08c-0.26,0.1-3.76,1.96-4,2.09
		c-0.01,0-0.01,0.01-0.01,0.01c2.14-1.04,4.84-0.84,7.8,0.86l178.77,103.27L265.95,118.41z"/>
	<path class="st3" d="M263,119.99L84.23,16.72c-2.84-1.64-5.45-1.87-7.55-0.96c1.79-0.28,3.85,0.15,6.04,1.42l178.77,103.27
		c6.92,4,12.53,14.72,12.53,23.94v162.62c0,5.44-1.96,9.13-4.98,10.44c3.87-0.61,6.49-4.58,6.49-10.89V143.94
		C275.53,134.71,269.92,123.99,263,119.99z"/>
	<path class="st9" d="M78.14,40.95v148.16c0,7.24,3.44,14.31,9.01,17.85l176.86,102.16c0.07,0.04,0.17,0.1,0.29,0.17
		c1.6,0.91,3.59-0.24,3.59-2.08V150.57L78.14,40.95z"/>
	<path class="st10" d="M267.63,307.96c-0.13-0.07-0.23-0.13-0.29-0.17L90.48,205.63c-5.57-3.54-9.01-10.61-9.01-17.85V42.88
		l-3.33-1.93v148.16c0,7.24,3.44,14.31,9.01,17.85l176.86,102.16c0.07,0.04,0.17,0.1,0.29,0.17c1.35,0.77,2.97,0.06,3.44-1.29
		C267.71,307.98,267.67,307.98,267.63,307.96z"/>
	<g>
		<path class="st11" d="M257.93,132.78c0,2.19,1.54,4.85,3.45,5.95c1.9,1.1,3.45,0.22,3.45-1.97c0-2.19-1.54-4.85-3.45-5.95
			C259.48,129.71,257.93,130.59,257.93,132.78z"/>
		<path class="st4" d="M249.04,127.61c0,2.19,1.54,4.85,3.45,5.95c1.9,1.1,3.45,0.22,3.45-1.97c0-2.19-1.54-4.85-3.45-5.95
			C250.58,124.55,249.04,125.43,249.04,127.61z"/>
		<path class="st12" d="M240.14,122.45c0,2.19,1.54,4.85,3.45,5.95c1.9,1.1,3.45,0.22,3.45-1.97s-1.54-4.85-3.45-5.95
			C241.69,119.38,240.14,120.26,240.14,122.45z"/>
	</g>
</g>
<path class="st1" d="M194.78,117.51l-12.97-7.49c-1.31-0.76-2.37-0.15-2.37,1.35c0,1.5,1.06,3.34,2.37,4.09l12.97,7.49
	c1.31,0.76,2.37,0.15,2.37-1.35C197.15,120.1,196.09,118.26,194.78,117.51z M216.13,129.84l-12.97-7.49
	c-1.31-0.76-2.37-0.15-2.37,1.35c0,1.5,1.06,3.34,2.37,4.09l12.97,7.49c1.31,0.76,2.37,0.15,2.37-1.35
	C218.51,132.43,217.45,130.59,216.13,129.84z M237.49,142.17l-12.97-7.49c-1.31-0.76-2.37-0.15-2.37,1.35c0,1.5,1.06,3.34,2.37,4.09
	l12.97,7.49c1.31,0.76,2.37,0.15,2.37-1.35C239.86,144.75,238.8,142.92,237.49,142.17z M258.85,154.5l-12.97-7.49
	c-1.31-0.76-2.37-0.15-2.37,1.35c0,1.5,1.06,3.34,2.37,4.09l12.97,7.49c1.31,0.76,2.37,0.15,2.37-1.35
	C261.22,157.08,260.16,155.25,258.85,154.5z"/>
<g>
	<g>
		<polygon class="st13" points="143.31,128.21 143.31,184.04 149.42,180.46 149.42,124.48 		"/>
		<polygon class="st7" points="143.33,128.21 143.33,184.04 21.54,114.19 21.54,58.21 		"/>
		<polygon class="st1" points="21.54,58.21 143.33,128.21 149.42,124.48 27.58,54.53 		"/>
		<polygon class="st6" points="21.54,58.21 143.33,128.21 149.42,124.48 143.32,127.36 		"/>
	</g>
	<g>
		<polygon class="st3" points="125.5,163.79 125.5,161.42 87.06,139.57 87.06,141.94 		"/>
		<polygon class="st3" points="70.41,95.48 70.41,97.85 135.02,134.81 135.02,132.44 		"/>
		<polygon class="st3" points="93.16,128.31 70.41,115.18 70.41,117.55 93.16,130.68 		"/>
		<polygon class="st3" points="108.56,147.05 108.56,149.42 117.95,154.51 117.95,152.14 		"/>
		<polygon class="st3" points="107.1,126.51 70.41,105.33 70.41,107.7 107.1,128.88 		"/>
		<polygon class="st3" points="83.85,118.01 70.41,110.25 70.41,112.62 83.85,120.38 		"/>
		<polygon class="st3" points="80.43,133.19 106.22,148.08 106.22,145.71 80.43,130.82 		"/>
		<polygon class="st3" points="86.18,119.36 86.18,121.73 122.39,142.3 122.39,139.92 		"/>
		<polygon class="st3" points="95.49,129.66 95.49,132.03 113.6,142.48 113.6,140.11 		"/>
		<polygon class="st3" points="78.1,129.47 70.41,125.03 70.41,127.4 78.1,131.84 		"/>
		<polygon class="st3" points="109.43,130.23 135.02,144.66 135.02,142.29 109.43,127.86 		"/>
		<polygon class="st3" points="124.72,143.64 135.02,149.59 135.02,147.22 124.72,141.27 		"/>
		<polygon class="st3" points="70.41,102.77 135.02,139.74 135.02,137.37 70.41,100.4 		"/>
		<polygon class="st3" points="115.93,143.83 135.02,154.51 135.02,152.14 115.93,141.46 		"/>
		<polygon class="st3" points="84.72,138.22 70.41,129.95 70.41,132.32 84.72,140.59 		"/>
		<polygon class="st3" points="127.83,165.14 135.02,169.29 135.02,166.92 127.83,162.76 		"/>
		<polygon class="st3" points="120.29,155.86 135.02,164.36 135.02,161.99 120.29,153.49 		"/>
		<polygon class="st3" points="70.41,122.47 135.02,159.44 135.02,157.07 70.41,120.1 		"/>
	</g>
	<path class="st13" d="M56.91,86.1L35.67,73.82c-3.71-2.14-6.72,0.13-6.72,5.08v24.59c0,4.95,3.01,10.7,6.72,12.85l21.24,12.29
		c3.71,2.14,6.72-0.13,6.72-5.08V98.95C63.63,94,60.62,88.25,56.91,86.1z"/>
	<path class="st14" d="M59.53,126.62l-21.24-12.29c-3.71-2.14-6.72-7.9-6.72-12.85V76.9c0-1.57,0.3-2.86,0.83-3.84
		c-2.06,0.34-3.46,2.47-3.46,5.84v24.59c0,4.95,3.01,10.7,6.72,12.85l21.24,12.29c2.54,1.47,4.75,0.86,5.89-1.25
		C61.83,127.54,60.72,127.31,59.53,126.62z"/>
	<g>
		<path class="st12" d="M40.41,92.98L19.17,80.69c-3.71-2.14-6.72,0.13-6.72,5.08v24.59c0,4.95,3.01,10.7,6.72,12.85l21.24,12.29
			c3.71,2.14,6.72-0.13,6.72-5.08v-24.59C47.13,100.88,44.12,95.12,40.41,92.98z"/>
		<path class="st15" d="M43.87,90.95L22.63,78.66c-1.59-0.92-3.05-1.02-4.2-0.45l-0.04-0.04l-3.68,2.16l0.01,0.05
			c1.18-0.7,2.73-0.66,4.43,0.32l21.24,12.29c3.71,2.14,6.72,7.9,6.72,12.85v24.59c0,2.41-0.72,4.17-1.87,5.12l2.05-1.35
			c1.72-0.99,3.29-2.52,3.29-5.8V103.8C50.6,98.84,47.59,93.09,43.87,90.95z"/>
		<path class="st6" d="M40.79,92.66L19.54,80.38c-1.84-1.07-3.51-1.04-4.73-0.14c1.1-0.42,2.45-0.27,3.91,0.58L39.97,93.1
			c3.71,2.14,6.72,7.9,6.72,12.85v24.59c0,2.49-0.76,4.3-1.99,5.22c1.7-0.65,2.81-2.66,2.81-5.66v-24.59
			C47.51,100.56,44.5,94.81,40.79,92.66z"/>
		<path class="st3" d="M18.08,87.48v28.15l23.04,13.31v-28.15L18.08,87.48z M39.64,126.37l-20.08-11.6V90.03l20.08,11.6V126.37z"/>
		<path class="st3" d="M36.05,105.79c0,1.84-1.3,2.59-2.91,1.66c-1.61-0.93-2.91-3.18-2.91-5.02s1.3-2.59,2.91-1.66
			C34.75,101.69,36.05,103.94,36.05,105.79z"/>
		<polygon class="st3" points="18.85,108.14 24.85,100.39 30.94,115.8 35.37,112.2 40.26,125.49 40.16,126.84 18.94,115.49 		"/>
	</g>
</g>
<g>
	<g>
		<path class="st11" d="M299.9,109.2c0,3.82-1.32,6.53-3.47,7.85c-0.06,0.04-3.67,2.27-3.73,2.31c-2.23,1.25-0.8-1.58-4.2-3.54
			c-6.82-3.94-12.36-13.48-12.36-21.31c0-3.87-3.58-3.9-1.39-5.2c0.06-0.04,4.09-2.34,4.15-2.37c2.23-1.21,5.27-0.98,8.62,0.95
			C294.37,91.83,299.9,101.37,299.9,109.2z"/>
		<path class="st3" d="M284.1,90.01c-3.27-1.89-6.24-2.14-8.45-1.04c2.06-0.58,4.62-0.15,7.39,1.45
			c6.82,3.94,12.35,13.48,12.35,21.31c0,4.08-1.5,6.88-3.9,8.08c3.02-0.84,4.97-3.84,4.97-8.5
			C296.45,103.49,290.92,93.95,284.1,90.01z"/>
		
			<ellipse transform="matrix(0.8633 -0.5047 0.5047 0.8633 -13.9752 157.3627)" class="st16" cx="283.5" cy="104.48" rx="10.06" ry="17.42"/>
	</g>
	<path class="st17" d="M281.29,99.4c0,1.1-0.78,1.54-1.74,0.99c-0.96-0.55-1.74-1.89-1.74-2.99c0-1.1,0.78-1.54,1.74-0.99
		C280.52,96.96,281.29,98.3,281.29,99.4z"/>
	<path class="st17" d="M288.31,103.46c0,1.1-0.78,1.54-1.74,0.99c-0.96-0.55-1.74-1.89-1.74-2.99c0-1.1,0.78-1.54,1.74-0.99
		C287.54,101.01,288.31,102.36,288.31,103.46z"/>
	<path class="st17" d="M276.51,103.93l1.62,0.27c0.75,2.84,2.74,5.61,4.97,6.89c2.16,1.25,4.14,0.84,4.92-1.02l1.6,1.64
		c-1.04,2.47-3.66,3.01-6.52,1.36C280.14,111.37,277.5,107.69,276.51,103.93z"/>
	<path class="st18" d="M280.06,100.04c-0.96-0.55-1.74-1.89-1.74-2.99c0-0.36,0.09-0.64,0.23-0.85c-0.45,0.1-0.74,0.53-0.74,1.2
		c0,1.1,0.78,2.44,1.74,2.99c0.65,0.37,1.2,0.28,1.5-0.14C280.78,100.31,280.43,100.25,280.06,100.04z"/>
	<path class="st18" d="M287.09,104.09c-0.96-0.55-1.74-1.89-1.74-2.99c0-0.36,0.09-0.64,0.23-0.85c-0.45,0.1-0.74,0.53-0.74,1.2
		c0,1.1,0.78,2.44,1.74,2.99c0.65,0.37,1.2,0.28,1.5-0.14C287.8,104.37,287.46,104.3,287.09,104.09z"/>
	<g>
		<path class="st18" d="M288.22,110.28l-0.2-0.2c-0.18,0.44-0.44,0.79-0.74,1.06C287.64,110.94,287.96,110.66,288.22,110.28z"/>
		<path class="st18" d="M283.6,112.72c-2.83-1.63-5.38-5.08-6.46-8.68l-0.64-0.11c0.99,3.76,3.64,7.44,6.59,9.14
			c2.16,1.25,4.17,1.24,5.48,0.11C287.29,113.94,285.5,113.81,283.6,112.72z"/>
	</g>
</g>
<g>
	<g>
		<polygon class="st13" points="293.83,232.01 293.83,300.18 299.94,296.61 299.94,228.27 		"/>
		<polygon class="st7" points="293.85,232.01 293.85,300.18 160.56,223.74 160.56,155.41 		"/>
		<polygon class="st1" points="160.56,155.41 293.85,232.01 299.94,228.27 166.6,151.73 		"/>
		<polygon class="st6" points="160.56,155.41 293.85,232.01 299.94,228.27 293.84,231.16 		"/>
	</g>
	
		<ellipse transform="matrix(0.8633 -0.5047 0.5047 0.8633 -89.8587 167.8067)" class="st13" cx="264.84" cy="249.78" rx="17.03" ry="29.49"/>
	<path class="st14" d="M266.84,272.03c-11.55-6.67-20.92-22.82-20.92-36.08c0-4.95,1.3-8.79,3.54-11.32
		c-3.44,2.29-5.54,6.79-5.54,13.07c0,13.26,9.36,29.41,20.92,36.08c7.24,4.18,13.62,3.64,17.38-0.61
		C278.4,275.73,272.92,275.55,266.84,272.03z"/>
	<g>
		<path class="st13" d="M206.13,192.85l-4.5-2.6v50.68l4.5,2.6V192.85z M212.61,190.31l-4.5-2.6v56.91l4.5,2.6V190.31z
			 M219.28,201.76l-4.5-2.6v49.27l4.5,2.6V201.76z M188.3,205.33v27.77l4.5,2.6v-27.77L188.3,205.33z M199.47,197.61l-4.5-2.6v41.89
			l4.5,2.6V197.61z M225.82,215.83l-4.5-2.6v39.01l4.5,2.6V215.83z M232.23,231.91l-4.5-2.6v26.67l4.5,2.6V231.91z M186.13,200.51
			l-4.5-2.6v31.16l4.5,2.6V200.51z M168.3,202.35v18.88l4.5,2.6v-18.88L168.3,202.35z M179.46,194.95l-4.5-2.6v32.69l4.5,2.6V194.95
			z"/>
		<path class="st2" d="M206.13,212.74l-4.5-2.6v30.79l4.5,2.6V212.74z M212.61,198.74l-4.5-2.6v48.47l4.5,2.6V198.74z
			 M219.28,210.75l-4.5-2.6v40.27l4.5,2.6V210.75z M188.3,212.07v21.02l4.5,2.6v-21.02L188.3,212.07z M199.47,211.25l-4.5-2.6v28.25
			l4.5,2.6V211.25z M186.13,203.06l-4.5-2.6v28.61l4.5,2.6V203.06z M168.3,215.76v5.47l4.5,2.6v-5.47L168.3,215.76z M179.46,215.77
			l-4.5-2.6v11.86l4.5,2.6V215.77z M225.82,223.09l-4.5-2.6v31.75l4.5,2.6V223.09z M232.23,235.87l-4.5-2.6v22.71l4.5,2.6V235.87z"
			/>
		<g>
			<polygon class="st3" points="219.28,211.31 214.78,208.72 214.78,208.16 219.28,210.75 			"/>
			<polygon class="st3" points="212.61,199.31 208.11,196.71 208.11,196.15 212.61,198.74 			"/>
			<polygon class="st3" points="232.23,236.43 227.74,233.83 227.74,233.27 232.23,235.87 			"/>
			<polygon class="st3" points="206.13,213.3 201.64,210.71 201.64,210.15 206.13,212.74 			"/>
			<polygon class="st3" points="225.82,223.65 221.32,221.05 221.32,220.49 225.82,223.09 			"/>
			<polygon class="st3" points="179.46,216.33 174.96,213.74 174.96,213.18 179.46,215.77 			"/>
			<polygon class="st3" points="186.13,203.62 181.63,201.03 181.63,200.46 186.13,203.06 			"/>
			<polygon class="st3" points="172.79,218.36 172.79,218.92 168.3,216.32 168.3,215.76 			"/>
			<polygon class="st3" points="199.47,211.81 194.97,209.21 194.97,208.65 199.47,211.25 			"/>
			<polygon class="st3" points="192.8,215.23 188.3,212.63 188.3,212.07 192.8,214.67 			"/>
		</g>
	</g>
	<g>
		<g>
			<path class="st11" d="M244.26,240.92c0.27-10.02,7.56-14,16.49-8.84c4.6,2.66,8.76,7.23,11.76,12.46l3.3-0.83
				c-3.75-6.81-9.11-12.82-15.06-16.25c-11.24-6.49-20.4-1.36-20.54,11.43l2.64,2.39L244.26,240.92z"/>
			<path class="st11" d="M269.04,272.19c-2.44,0.22-5.26-0.46-8.28-2.2c-8.46-4.89-15.45-16.27-16.4-26.24l-4.03-2.03
				c0.01,0.07-1.35,0.35-1.34,0.42c1.17,12.41,11.24,26.39,21.77,32.47c3.83,2.21,6.42,3.37,9.49,3.04
				c0.13-0.01,1.25-0.33,1.38-0.35L269.04,272.19z"/>
			<path class="st11" d="M274.08,247.56c2,4.29,3.2,8.83,3.2,13.01c0,5.99-2.44,9.92-6.23,11.21l2.55,5.06
				c4.69-1.61,7.71-6.51,7.71-13.94c0-5.18-1.47-10.83-3.95-16.16L274.08,247.56z"/>
		</g>
		<path class="st11" d="M266.43,255.87c-1.11-0.94-2.11-2.14-2.9-3.47c-0.48-0.8-0.46-1.67,0-1.94c0.6-0.35,1.13-0.91,1.48-1.65
			c0.51,0.14,1.14-0.05,1.14-0.74c0-0.71-0.31-1.48-0.73-1.87c-0.12-3.04-1.16-6.16-4.66-8.18c-1.22-0.71-2.14-0.93-2.83-0.8
			c-0.16,0.03-1.55,0.4-1.68,0.46c-0.95,0.47-0.08,1.49-0.15,3.14c-0.42-0.09-0.73,0.32-0.73,1.03c0,0.7,0.63,1.61,1.14,2.06
			c0.35,1.14,0.88,2.31,1.48,3.36c0.47,0.81,0.48,1.7,0,1.95c-0.79,0.41-1.79,0.46-2.9,0.12c-0.44-0.13-0.85-0.15-1.21-0.05
			c-0.1,0.03-1.35,0.35-1.44,0.4c-0.65,0.32,0.09,0.8,0.09,1.9v3.13c0,0.61,0.43,1.35,0.96,1.65l13.43,8.89
			c0.23,0.13,1.55-0.33,1.72-0.4c0.21-0.08,0.35-0.31,0.35-0.65v-3.13C268.99,259.26,267.9,257.12,266.43,255.87z"/>
		<g>
			<path class="st3" d="M243.36,241.18c0.27-10.02,7.56-14,16.49-8.84c4.6,2.66,8.76,7.23,11.76,12.46l3.3-0.83
				c-3.75-6.81-9.11-12.82-15.06-16.25c-11.24-6.49-20.4-1.36-20.54,11.43L243.36,241.18z"/>
			<path class="st3" d="M268.14,272.44c-2.44,0.22-5.26-0.46-8.28-2.2c-8.46-4.89-15.45-16.27-16.4-26.24l-4.03-2.03
				c1.08,12.46,9.83,26.77,20.43,32.89c3.99,2.3,7.71,3.14,10.87,2.69L268.14,272.44z"/>
			<path class="st3" d="M273.17,247.82c2,4.29,3.2,8.83,3.2,13.01c0,5.99-2.44,9.92-6.23,11.21l2.55,5.06
				c4.69-1.61,7.71-6.51,7.71-13.94c0-5.18-1.47-10.83-3.95-16.16L273.17,247.82z"/>
		</g>
		<path class="st3" d="M265.53,256.12c-1.11-0.94-2.11-2.14-2.9-3.47c-0.48-0.8-0.46-1.67,0-1.94c0.6-0.35,1.13-0.91,1.48-1.65
			c0.51,0.14,1.14-0.05,1.14-0.74c0-0.71-0.31-1.48-0.73-1.87c-0.12-3.04-1.16-6.16-4.66-8.18c-3.5-2.02-4.53-0.09-4.66,2.8
			c-0.42-0.09-0.73,0.32-0.73,1.03c0,0.7,0.63,1.61,1.14,2.06c0.35,1.14,0.88,2.31,1.48,3.36c0.47,0.81,0.48,1.7,0,1.95
			c-0.79,0.41-1.79,0.46-2.9,0.12c-1.47-0.44-2.56,0.44-2.56,2.25v3.13c0,0.61,0.43,1.35,0.96,1.65l14.54,8.39
			c0.53,0.31,0.96,0.06,0.96-0.55v-3.13C268.08,259.52,266.99,257.37,265.53,256.12z"/>
		<g>
			<path class="st19" d="M242.85,241.31c0.27-10.02,7.56-14,16.49-8.84c4.6,2.66,8.76,7.23,11.76,12.46l3.3-0.83
				c-3.75-6.81-9.11-12.82-15.06-16.25c-11.24-6.49-20.4-1.36-20.54,11.43L242.85,241.31z"/>
			<path class="st19" d="M267.62,272.57c-2.44,0.22-5.26-0.46-8.28-2.2c-8.46-4.89-15.45-16.27-16.4-26.24l-4.03-2.03
				c1.08,12.46,9.83,26.77,20.43,32.89c3.99,2.3,7.71,3.14,10.87,2.69L267.62,272.57z"/>
			<path class="st19" d="M272.66,247.95c2,4.29,3.2,8.83,3.2,13.01c0,5.99-2.44,9.92-6.23,11.21l2.55,5.06
				c4.69-1.61,7.71-6.51,7.71-13.94c0-5.18-1.47-10.83-3.95-16.16L272.66,247.95z"/>
		</g>
		<path class="st19" d="M265.01,256.25c-1.11-0.94-2.11-2.14-2.9-3.47c-0.48-0.8-0.46-1.67,0-1.94c0.6-0.35,1.13-0.91,1.48-1.65
			c0.51,0.14,1.14-0.05,1.14-0.74c0-0.71-0.31-1.48-0.73-1.87c-0.12-3.04-1.16-6.16-4.66-8.18c-3.5-2.02-4.53-0.09-4.66,2.8
			c-0.42-0.09-0.73,0.32-0.73,1.03c0,0.7,0.63,1.61,1.14,2.06c0.35,1.14,0.88,2.31,1.48,3.36c0.47,0.81,0.48,1.7,0,1.95
			c-0.79,0.41-1.79,0.46-2.9,0.12c-1.47-0.44-2.56,0.44-2.56,2.25v3.13c0,0.61,0.43,1.35,0.96,1.65l14.54,8.39
			c0.53,0.31,0.96,0.06,0.96-0.55v-3.13C267.57,259.65,266.48,257.5,265.01,256.25z"/>
	</g>
</g>
<g>
	<g>
		<polygon class="st15" points="161.3,214.88 161.3,243.43 166.08,240.79 166.08,212.09 		"/>
		<polygon class="st12" points="161.32,214.88 161.32,243.43 55.68,182.43 55.68,153.73 		"/>
		<polygon class="st20" points="55.68,153.73 161.32,214.88 166.08,212.09 60.4,150.99 		"/>
		<polygon class="st6" points="55.68,153.73 161.32,214.88 166.08,212.09 161.42,214.13 		"/>
	</g>
	<polygon class="st3" points="155.95,234.78 60.89,179.3 60.89,162.48 155.95,217.96 	"/>
	<g>
		<path class="st14" d="M64.87,167.23l1.92,1.11l0.89,9.18l0.04,0.02l0.94-8.12l2.18,1.26l0.94,9.21l0.04,0.02l0.89-8.16l1.72,0.99
			l-1.29,11.3l-2.48-1.43l-0.91-7.82l-0.04-0.02l-0.91,6.77l-2.65-1.53L64.87,167.23z"/>
		<path class="st14" d="M76.25,173.85l1.92,1.11l0.89,9.18l0.04,0.02l0.94-8.12l2.18,1.26l0.94,9.21l0.04,0.02l0.89-8.16l1.72,0.99
			l-1.29,11.3l-2.48-1.43l-0.91-7.82l-0.04-0.02l-0.91,6.77l-2.65-1.53L76.25,173.85z"/>
		<path class="st14" d="M87.72,180.37l1.92,1.11l0.89,9.18l0.04,0.02l0.94-8.12l2.18,1.26l0.94,9.21l0.04,0.02l0.89-8.16l1.72,0.99
			l-1.29,11.3l-2.48-1.43l-0.91-7.82l-0.04-0.02l-0.91,6.77l-2.65-1.53L87.72,180.37z"/>
	</g>
</g>
<g>
	<g>
		<polygon class="st11" points="103.64,67.96 103.64,87.86 106.64,86.21 106.64,66.15 		"/>
		<polygon class="st16" points="103.66,67.96 103.66,87.86 85.94,77.63 85.94,57.56 		"/>
		<polygon class="st19" points="85.94,57.56 103.66,67.96 106.64,66.15 88.88,55.81 		"/>
		<polygon class="st3" points="85.94,57.56 103.66,67.96 106.64,66.15 103.51,67 		"/>
	</g>
	<g>
		<polygon class="st5" points="119.22,61.32 119.22,93.55 124.08,90.87 124.08,58.39 		"/>
		<polygon class="st21" points="90.56,44.49 119.26,61.32 124.08,58.39 95.32,41.65 		"/>
		<polygon class="st6" points="90.56,44.49 119.26,61.32 124.08,58.39 119.39,60.62 		"/>
	</g>
	<polygon class="st4" points="90.56,44.49 90.56,57.86 105.75,66.76 105.75,85.75 119.26,93.55 119.26,61.32 	"/>
</g>
<g>
	<g>
		<polygon class="st15" points="180.56,139.16 180.56,161.41 183.92,159.57 183.92,137.14 		"/>
		<polygon class="st12" points="180.58,139.16 180.58,161.41 160.77,149.97 160.77,127.54 		"/>
		<polygon class="st20" points="160.77,127.54 180.58,139.16 183.92,137.14 164.06,125.58 		"/>
		<polygon class="st6" points="160.77,127.54 180.58,139.16 183.92,137.14 180.42,138.09 		"/>
	</g>
	<g>
		<polygon class="st15" points="206.56,154.16 206.56,176.41 209.92,174.57 209.92,152.14 		"/>
		<polygon class="st12" points="206.58,154.16 206.58,176.41 186.77,164.97 186.77,142.54 		"/>
		<polygon class="st20" points="186.77,142.54 206.58,154.16 209.92,152.14 190.06,140.58 		"/>
		<polygon class="st6" points="186.77,142.54 206.58,154.16 209.92,152.14 206.42,153.09 		"/>
	</g>
	<g>
		<polygon class="st15" points="232.39,168.99 232.39,191.25 235.75,189.4 235.75,166.97 		"/>
		<polygon class="st12" points="232.42,168.99 232.42,191.25 212.61,179.8 212.61,157.37 		"/>
		<polygon class="st20" points="212.61,157.37 232.42,168.99 235.75,166.97 215.89,155.41 		"/>
		<polygon class="st6" points="212.61,157.37 232.42,168.99 235.75,166.97 232.25,167.92 		"/>
	</g>
	<g>
		<polygon class="st15" points="257.89,183.49 257.89,205.75 261.25,203.9 261.25,181.47 		"/>
		<polygon class="st12" points="257.92,183.49 257.92,205.75 238.11,194.3 238.11,171.87 		"/>
		<polygon class="st20" points="238.11,171.87 257.92,183.49 261.25,181.47 241.39,169.91 		"/>
		<polygon class="st6" points="238.11,171.87 257.92,183.49 261.25,181.47 257.75,182.42 		"/>
	</g>
	<path class="st3" d="M226.46,178.42c-0.7-0.6-1.33-1.36-1.83-2.19c-0.3-0.51-0.29-1.06,0-1.23c0.38-0.22,0.72-0.58,0.94-1.04
		c0.32,0.09,0.72-0.03,0.72-0.47c0-0.45-0.2-0.94-0.46-1.19c-0.08-1.92-0.74-3.9-2.95-5.18c-2.21-1.28-2.87-0.06-2.95,1.77
		c-0.27-0.06-0.46,0.2-0.46,0.65c0,0.44,0.4,1.02,0.72,1.3c0.22,0.72,0.55,1.46,0.94,2.12c0.29,0.51,0.31,1.07,0,1.23
		c-0.5,0.26-1.13,0.29-1.83,0.08c-0.93-0.28-1.62,0.28-1.62,1.42v1.98c0,0.38,0.27,0.85,0.61,1.05l9.2,5.31
		c0.33,0.19,0.61,0.04,0.61-0.35v-1.98C228.08,180.57,227.39,179.21,226.46,178.42z"/>
	<path class="st3" d="M241.68,192.73l3.21,1.85v-5.76l-3.21-1.85V192.73z M246.77,195.67l3.21,1.85v-10.56l-3.21-1.85V195.67z
		 M251.85,183.25v15.35l3.21,1.85v-15.35L251.85,183.25z"/>
	<path class="st3" d="M201.85,162.73c0-0.3-0.03-0.6-0.06-0.91l1.52-0.19c-0.15-0.76-0.39-1.54-0.69-2.3l-1.73-0.52
		c-0.3-0.65-0.66-1.27-1.08-1.86l0.41-1.74c-0.51-0.64-1.07-1.23-1.66-1.74l-0.93,1.2c-0.25-0.19-0.5-0.36-0.76-0.51
		c-0.26-0.15-0.51-0.27-0.76-0.37l-0.93-2.28c-0.59-0.16-1.14-0.21-1.66-0.17l0.41,2.22c-0.41,0.11-0.77,0.32-1.08,0.61l-1.73-1.47
		c-0.3,0.41-0.53,0.92-0.69,1.5l1.52,1.94c-0.04,0.26-0.06,0.54-0.06,0.84c0,0.3,0.03,0.6,0.06,0.91l-1.52,0.19
		c0.15,0.76,0.39,1.54,0.69,2.3l1.73,0.52c0.3,0.65,0.66,1.27,1.08,1.86l-0.41,1.74c0.51,0.64,1.07,1.23,1.66,1.74l0.93-1.2
		c0.25,0.19,0.5,0.36,0.76,0.51c0.26,0.15,0.51,0.27,0.76,0.37l0.93,2.28c0.59,0.16,1.14,0.21,1.66,0.17l-0.41-2.22
		c0.41-0.11,0.77-0.32,1.08-0.61l1.73,1.47c0.3-0.41,0.53-0.92,0.69-1.5l-1.52-1.94C201.82,163.3,201.85,163.02,201.85,162.73z
		 M196.87,162.15c-1.1-0.64-2-2.18-2-3.44c0-1.27,0.89-1.78,2-1.14s2,2.18,2,3.44S197.98,162.78,196.87,162.15z"/>
	<g>
		<path class="st3" d="M164.44,136.39l6.38,9.96l6.38-2.6c0,0,0,0.01,0.01,0.01c-0.21-0.31-0.47-0.57-0.76-0.74l-11.25-6.5
			C164.91,136.36,164.65,136.33,164.44,136.39C164.44,136.39,164.44,136.39,164.44,136.39z"/>
		<path class="st3" d="M177.22,143.78l-6.4,3.65l-1.81-3.12l-4.57,1.86c-0.01-0.01-0.01-0.02-0.02-0.03l4.25-2.42l-4.25-7.32
			c-0.29,0.1-0.48,0.39-0.48,0.84v7.62c0,0.79,0.56,1.76,1.25,2.16l11.25,6.5c0.69,0.4,1.25,0.08,1.25-0.71v-7.62
			C177.7,144.73,177.51,144.21,177.22,143.78z M177.2,153.53l-4.57-7.13l0.34-0.19l4.25,7.32
			C177.21,153.53,177.21,153.53,177.2,153.53z"/>
	</g>
</g>
<g>
	<g>
		<polygon class="st13" points="80.78,204.23 80.78,232.78 85.29,230.22 85.29,201.51 		"/>
		<polygon class="st7" points="80.81,204.23 80.81,232.78 4.14,188.53 4.14,159.82 		"/>
		<polygon class="st1" points="4.14,159.82 80.81,204.23 85.29,201.51 8.58,157.16 		"/>
		<polygon class="st6" points="4.14,159.82 80.81,204.23 85.29,201.51 80.62,203.38 		"/>
	</g>
	<path class="st3" d="M33.77,181.65l-14.02-8.09c-0.86-0.5-1.56-0.1-1.56,0.89v9.49c0,0.99,0.7,2.19,1.56,2.69l8.76,5.06l4.38,7.55
		v-5.03l0.88,0.51c0.86,0.5,1.56,0.1,1.56-0.89v-9.49C35.32,183.34,34.63,182.14,33.77,181.65z M23.88,183.42
		c-0.46,0.26-1.2-0.17-1.65-0.95c-0.46-0.79-0.46-1.64,0-1.9c0.46-0.26,1.2,0.17,1.65,0.95S24.34,183.16,23.88,183.42z
		 M27.68,185.61c-0.46,0.26-1.2-0.17-1.65-0.95c-0.46-0.79-0.46-1.64,0-1.9c0.46-0.26,1.2,0.17,1.65,0.95
		C28.14,184.5,28.14,185.35,27.68,185.61z M31.48,187.81c-0.46,0.26-1.2-0.17-1.65-0.95c-0.46-0.79-0.46-1.64,0-1.9
		c0.46-0.26,1.2,0.17,1.65,0.95C31.93,186.7,31.93,187.55,31.48,187.81z M17.02,183.26v-7.71l-5.35-3.09
		c-0.86-0.5-1.56-0.1-1.56,0.89v9.49c0,0.99,0.7,2.19,1.56,2.69l0.88,0.51v5.03l4.38-2.5l8.76,5.06c0.86,0.5,1.56,0.1,1.56-0.89
		v-0.45l-7.49-4.33C18.25,187.09,17.02,184.98,17.02,183.26z"/>
	<polygon class="st3" points="38.51,186.42 38.51,188.79 75.14,209.94 75.14,207.57 	"/>
	<polygon class="st3" points="63.56,210.74 38.51,196.27 38.51,198.64 63.56,213.11 	"/>
	<polygon class="st3" points="38.51,193.72 75.14,214.86 75.14,212.49 38.51,191.35 	"/>
</g>
<g>
	<path class="st22" d="M131.87,263.91l-23.81-13.37c2.06-1.51,3.26-3.3,3.26-5.23c0-5.33-9.09-9.64-20.3-9.64s-20.3,4.32-20.3,9.64
		c0,5.33,9.09,9.64,20.3,9.64c2.34,0,4.57-0.2,6.66-0.54l25.64,14.4c1.66,0.96,4.55,0.84,6.46-0.27
		C131.9,267.47,134.41,265.41,131.87,263.91z"/>
	<g>
		<g>
			<path class="st10" d="M131.79,261.28c1.43,2.65,0.44,5.95-2.21,7.38c-2.65,1.43-5.95,0.44-7.38-2.21
				c-1.43-2.65-0.44-5.95,2.21-7.38C127.06,257.64,130.36,258.63,131.79,261.28z"/>
			<path class="st14" d="M114.55,227.02l-11.8,6.36l17.6,32.46l0,0c0.01,0.02,0.01,0.03,0.02,0.05c1.02,1.9,4.49,2.01,7.75,0.26
				c3.26-1.76,5.07-4.72,4.05-6.61c-0.01-0.02-0.02-0.03-0.03-0.05l0,0L114.55,227.02z"/>
			<path class="st13" d="M114.56,227.04c1.02,1.9-0.79,4.86-4.05,6.61c-3.26,1.76-6.73,1.64-7.75-0.26
				c-1.02-1.9,0.79-4.86,4.05-6.61C110.07,225.03,113.54,225.14,114.56,227.04z"/>
			<path class="st10" d="M106.82,218.4l-7.02,3.78l4.99,9.26l0,0c0,0.01,0.01,0.02,0.01,0.03c0.61,1.13,2.67,1.2,4.61,0.15
				c1.94-1.04,3.02-2.81,2.41-3.93c-0.01-0.01-0.01-0.02-0.02-0.03l0,0L106.82,218.4z"/>
		</g>
		<g>
			<path class="st1" d="M87.01,143.97c-8.74-5.04-16.66-5.62-22.46-2.48c-0.16,0.09-8.48,4.73-8.74,5.13
				c5.9-4.45,14.63-4.38,24.38,1.24c17.77,10.26,32.17,35.1,32.17,55.49c0,10.4-3.75,17.63-9.78,20.86
				c0.43-0.12,0.94-0.34,1.57-0.69c0.17-0.1,5.84-3.53,6.01-3.64c5.59-3.41,9.02-10.47,9.02-20.43
				C119.18,179.07,104.78,154.23,87.01,143.97z"/>
		</g>
		<path class="st0" d="M80.19,147.86c-17.77-10.26-32.17-2.05-32.17,18.34c0,20.39,14.4,45.23,32.17,55.49
			c17.77,10.26,32.17,2.05,32.17-18.34S97.96,158.12,80.19,147.86z M79.71,216.82c-15.08-8.7-27.3-29.79-27.3-47.09
			s12.22-24.27,27.3-15.56c15.08,8.7,27.3,29.79,27.3,47.09C107.01,218.56,94.78,225.53,79.71,216.82z"/>
		<path class="st1" d="M85.36,213.67c-15.08-8.7-27.3-29.79-27.3-47.09c0-7.06,2.03-12.39,5.47-15.65
			c-6.74,1.81-11.12,8.46-11.12,18.81c0,17.3,12.22,38.38,27.3,47.09c8.93,5.15,16.85,4.81,21.83,0.09
			C97.01,218.13,91.42,217.16,85.36,213.67z"/>
		<path class="st3" d="M81.73,147.09c-8.52-4.92-16.25-5.58-22.01-2.7c5.36-1.5,13.26-0.69,20.47,3.47
			c17.77,10.26,32.17,35.1,32.17,55.49c0,10.61-5.14,18.23-11.4,21.35c7.85-2.2,12.94-10.01,12.94-22.12
			C113.9,182.19,99.5,157.35,81.73,147.09z"/>
	</g>
</g>
</svg>
