<?xml version="1.0" encoding="utf-8"?>
<!-- Generator: Adobe Illustrator 24.0.1, SVG Export Plug-In . SVG Version: 6.00 Build 0)  -->
<svg version="1.1" id="Layer_1" xmlns="http://www.w3.org/2000/svg" xmlns:xlink="http://www.w3.org/1999/xlink" x="0px" y="0px"
	 viewBox="0 0 1739.96 1537.92" style="enable-background:new 0 0 1739.96 1537.92;" xml:space="preserve">
<style type="text/css">
	.st0{fill-rule:evenodd;clip-rule:evenodd;fill:#202249;}
	.st1{fill-rule:evenodd;clip-rule:evenodd;fill:url(#SVGID_1_);}
	.st2{opacity:0.3;fill-rule:evenodd;clip-rule:evenodd;fill:#1E2353;}
	.st3{fill-rule:evenodd;clip-rule:evenodd;fill:url(#SVGID_2_);}
	.st4{opacity:0.3;fill-rule:evenodd;clip-rule:evenodd;fill:#955CF1;}
	.st5{fill-rule:evenodd;clip-rule:evenodd;fill:url(#SVGID_3_);}
	.st6{fill-rule:evenodd;clip-rule:evenodd;fill:url(#SVGID_4_);}
	.st7{fill-rule:evenodd;clip-rule:evenodd;fill:#4A9FF8;}
	.st8{fill-rule:evenodd;clip-rule:evenodd;fill:#5858F0;}
	.st9{opacity:0.5;fill-rule:evenodd;clip-rule:evenodd;fill:url(#SVGID_5_);}
	.st10{opacity:0.5;fill-rule:evenodd;clip-rule:evenodd;fill:url(#SVGID_6_);}
	.st11{opacity:0.5;fill-rule:evenodd;clip-rule:evenodd;fill:url(#SVGID_7_);}
	.st12{fill-rule:evenodd;clip-rule:evenodd;fill:#D0E7FF;}
	.st13{fill-rule:evenodd;clip-rule:evenodd;fill:url(#SVGID_8_);}
	.st14{opacity:0.5;fill-rule:evenodd;clip-rule:evenodd;fill:#FFFCF1;}
	.st15{opacity:0.5;fill-rule:evenodd;clip-rule:evenodd;fill:url(#SVGID_9_);}
	.st16{fill-rule:evenodd;clip-rule:evenodd;fill:url(#SVGID_10_);}
	.st17{fill-rule:evenodd;clip-rule:evenodd;fill:#FFFCF1;}
	.st18{fill-rule:evenodd;clip-rule:evenodd;fill:#FFFFFF;}
	.st19{fill-rule:evenodd;clip-rule:evenodd;fill:url(#SVGID_11_);}
	.st20{fill-rule:evenodd;clip-rule:evenodd;fill:url(#SVGID_12_);}
	.st21{fill-rule:evenodd;clip-rule:evenodd;fill:#FFDB59;}
	.st22{opacity:0.2;fill-rule:evenodd;clip-rule:evenodd;fill:url(#SVGID_13_);}
	.st23{fill-rule:evenodd;clip-rule:evenodd;fill:url(#SVGID_14_);}
	.st24{opacity:0.2;fill-rule:evenodd;clip-rule:evenodd;fill:url(#SVGID_15_);}
	.st25{fill-rule:evenodd;clip-rule:evenodd;fill:url(#SVGID_16_);}
	.st26{fill-rule:evenodd;clip-rule:evenodd;fill:url(#SVGID_17_);}
	.st27{fill-rule:evenodd;clip-rule:evenodd;fill:url(#SVGID_18_);}
	.st28{opacity:0.35;fill-rule:evenodd;clip-rule:evenodd;fill:#3469C0;}
	.st29{fill-rule:evenodd;clip-rule:evenodd;fill:url(#SVGID_19_);}
	.st30{fill-rule:evenodd;clip-rule:evenodd;fill:url(#SVGID_20_);}
	.st31{fill-rule:evenodd;clip-rule:evenodd;fill:#FFA698;}
	.st32{fill-rule:evenodd;clip-rule:evenodd;fill:#FF9080;}
	.st33{opacity:0.5;fill-rule:evenodd;clip-rule:evenodd;fill:url(#SVGID_21_);}
	.st34{fill-rule:evenodd;clip-rule:evenodd;fill:url(#SVGID_22_);}
	.st35{opacity:0.2;fill-rule:evenodd;clip-rule:evenodd;fill:url(#SVGID_23_);}
	.st36{fill-rule:evenodd;clip-rule:evenodd;fill:url(#SVGID_24_);}
	.st37{opacity:0.2;fill-rule:evenodd;clip-rule:evenodd;fill:#955CF1;}
	.st38{fill-rule:evenodd;clip-rule:evenodd;fill:url(#SVGID_25_);}
	.st39{fill-rule:evenodd;clip-rule:evenodd;fill:#6D6AFD;}
	.st40{fill-rule:evenodd;clip-rule:evenodd;fill:#B269EB;}
	.st41{fill-rule:evenodd;clip-rule:evenodd;fill:url(#SVGID_26_);}
	.st42{fill-rule:evenodd;clip-rule:evenodd;fill:url(#SVGID_27_);}
	.st43{fill-rule:evenodd;clip-rule:evenodd;fill:url(#SVGID_28_);}
	.st44{fill-rule:evenodd;clip-rule:evenodd;fill:url(#SVGID_29_);}
	.st45{fill-rule:evenodd;clip-rule:evenodd;fill:#FFA495;}
	.st46{fill-rule:evenodd;clip-rule:evenodd;fill:#193161;}
	.st47{fill-rule:evenodd;clip-rule:evenodd;fill:url(#SVGID_30_);}
	.st48{fill-rule:evenodd;clip-rule:evenodd;fill:url(#SVGID_31_);}
	.st49{fill-rule:evenodd;clip-rule:evenodd;fill:url(#SVGID_32_);}
	.st50{fill-rule:evenodd;clip-rule:evenodd;fill:url(#SVGID_33_);}
	.st51{fill-rule:evenodd;clip-rule:evenodd;fill:url(#SVGID_34_);}
	.st52{fill-rule:evenodd;clip-rule:evenodd;fill:#FF8978;}
	.st53{fill-rule:evenodd;clip-rule:evenodd;fill:url(#SVGID_35_);}
	.st54{fill-rule:evenodd;clip-rule:evenodd;fill:url(#SVGID_36_);}
	.st55{opacity:0.35;fill-rule:evenodd;clip-rule:evenodd;fill:#6266D7;}
	.st56{fill-rule:evenodd;clip-rule:evenodd;fill:url(#SVGID_37_);}
	.st57{fill-rule:evenodd;clip-rule:evenodd;fill:url(#SVGID_38_);}
	.st58{fill-rule:evenodd;clip-rule:evenodd;fill:#FFB49C;}
	.st59{fill-rule:evenodd;clip-rule:evenodd;fill:#FF9D8E;}
	.st60{fill-rule:evenodd;clip-rule:evenodd;fill:#726CDE;}
	.st61{fill-rule:evenodd;clip-rule:evenodd;fill:#562E65;}
	.st62{fill-rule:evenodd;clip-rule:evenodd;fill:url(#SVGID_39_);}
	.st63{fill-rule:evenodd;clip-rule:evenodd;fill:url(#SVGID_40_);}
	.st64{fill-rule:evenodd;clip-rule:evenodd;fill:url(#SVGID_41_);}
	.st65{opacity:0.5;fill-rule:evenodd;clip-rule:evenodd;fill:#FFFFFF;}
</style>
<g>
	<g>
		<g>
			<path class="st0" d="M977.07,368.46c0.81,0.47,1.91,0.82,3.21,1.5c4.23,10.17,5.83,13.15,4.99,14.17
				c-0.68,0.83-0.6,0.38-0.97,2.43c-0.49,2.79,9.28,14.85,10.79,18.68c1.36,3.44,1.54,6.64,0.34,10.15
				c-2.14,6.28-5.76,12.42-10.41,17.64c-3.87,4.36-8.15,7.13-11.87,6.3c-4.58-1.03-3.8-5.14-3.11-9.2c0.25-1.45,3.01-4.66,2.79-6.09
				c-1.22-8.14-7.18-15.25-11.55-22.3c-3.75-3.49-10.07-7.16-13.57-11.2c-5.06-5.83-6.01-11.97,0.27-15.55
				c2-1.14,7.04-6.81,9.62-6.6C962.54,368.79,970.82,364.8,977.07,368.46z"/>
			<linearGradient id="SVGID_1_" gradientUnits="userSpaceOnUse" x1="883.7437" y1="248.5442" x2="883.7225" y2="377.7269">
				<stop  offset="0" style="stop-color:#324179"/>
				<stop  offset="1" style="stop-color:#0C124D"/>
			</linearGradient>
			<path class="st1" d="M808,345.12c-3.4,9.26-0.75,17.47,6.69,21.01c0.05,0.05,0.1,0.09,0.15,0.14c0.29,0.1,0.6,0.21,0.9,0.31
				c0.77,0.3,1.58,0.56,2.44,0.77c8.9,2.64,22.21,5.04,30.35,6.59c32.46,6.2,80.83,10.07,103.55,18.74
				c8.91-6.55,11.55-18.7,5.72-25.99c-24.78-11.81-58.25-27.15-72.29-32.35c-3.22-1.19-7.28-1.76-11.72-1.97
				c20.91-18.86,43.06-39.28,51.67-56.69c6.09-12.32,7.07-29.43,11.31-40.14c-34.14,9.99-40.67-10.61-46.95-17.85
				c-5.38,7.88-5.25,6.42-10.69,14.85c-18.41,28.5-45.55,68.91-64.01,98.93C812.09,335.77,809.2,340.79,808,345.12z"/>
			<path class="st2" d="M919.4,348.84c-13.92-6.3-26.55-11.78-33.88-14.5c-3.22-1.19-7.28-1.76-11.72-1.97
				c20.91-18.86,43.06-39.28,51.67-56.69c6.09-12.32,7.07-29.43,11.31-40.14c-9.62,2.81-17.04,3.2-22.89,2.14l0.92,6.67
				c-26.34,26.23-74.24,87.18-78.7,126.98c16.1,3.75,60.08,9.39,67.14,10.18C905.08,369.72,912.79,360.31,919.4,348.84L919.4,348.84
				z M895.39,225.47c-2.21-2.98-3.9-5.85-5.56-7.77c-3.42,5.02-4.61,6.25-6.43,8.66L895.39,225.47z"/>
			<path class="st0" d="M915.14,500.62c4.79,6.65-8.14,40.02-11.29,47.05c-2.78,6.2-1.89,10,4.68,10.1
				c5.18,0.08,13.4-7.26,18.4-12.06c9.4-9,9.93-18.17,12.66-22.08l3.2-1.03c2.34-1.32,9.26-10.36,9.64-13.78
				c-0.75-2.31-2.09-6.31-3.56-9.3c-5.11-9.43-6.23-5.31-12.97-11.08C928.22,494.02,933.67,496.25,915.14,500.62z"/>
			<linearGradient id="SVGID_2_" gradientUnits="userSpaceOnUse" x1="905.2513" y1="256.7887" x2="905.1638" y2="476.8421">
				<stop  offset="0" style="stop-color:#324179"/>
				<stop  offset="1" style="stop-color:#0C124D"/>
			</linearGradient>
			<path class="st3" d="M853.84,386.24c14.02,27.15,48.91,88.37,61.22,115.59c10.86,2.29,21.88-4.05,22.83-12.6
				c-7.93-26.09-20.8-69.06-27.16-82.75c-4.2-9.05-12.05-21.13-19.13-30.34c20.72-28.99,53.55-74.64,63.03-101.39
				c12.9-36.4-1.91-57.17-21.78-68.61c-7.06-4.06-14.67,2.45-18.26-1.9c-8.48,16.55-16.14,39.06-21.11,59.32
				c-6.92,28.24-39.93,88.17-42.42,108.33c-0.32,4.18,0.35,8.13,1.98,11.4C853.25,384.24,853.51,385.22,853.84,386.24z"/>
		</g>
		<path class="st4" d="M1409.86,1466.1L455.24,929.17c-12.05-5.49-29.76-10.66-41.57-3.44l-30.24,18.46
			c-6.08,3.71-26.08,16.04-12.71,23.3c39.36,21.35,920.82,519.9,960.79,541.58c7.56,4.1,18.62,5.57,30.23,4.59
			c11.56-0.97,23.56-4.12,32.74-9.8l12.08-7.46c8.54-5.28,13.27-11.04,13.72-16.56C1420.72,1474.46,1417.25,1469.46,1409.86,1466.1z
			"/>
		<g>
			<linearGradient id="SVGID_3_" gradientUnits="userSpaceOnUse" x1="1008.7709" y1="474.6314" x2="870.2243" y2="1315.5308">
				<stop  offset="0" style="stop-color:#D1E8FF"/>
				<stop  offset="1" style="stop-color:#EAEFFF"/>
			</linearGradient>
			<path class="st5" d="M564.75,54.29c-6.58-3.74-14.29-5.13-21.52-2.4l-16.15,6.31c-5.86,30.36,831.85,1423.07,839.34,1430.79
				l14.42-5.44c9.47-3.73,14.43-13.58,15.82-23.16l121.73-830.94c0.01-0.03,0.01-0.07,0.01-0.09c1.98-13.98-2.22-28.52-9.9-40.2
				c-4.14-6.29-9.58-12.06-16.26-15.68L564.75,54.29z"/>
			<linearGradient id="SVGID_4_" gradientUnits="userSpaceOnUse" x1="1089.1895" y1="315.4916" x2="765.8779" y2="1351.1946">
				<stop  offset="0" style="stop-color:#6D6AFE"/>
				<stop  offset="1" style="stop-color:#3FB0F7"/>
			</linearGradient>
			<path class="st6" d="M1476.3,579.62L548.82,60.44c-17.54-9.72-34.25-0.39-37.35,20.77L389.74,912.16
				c-3.1,21.16,8.56,46.22,26.1,55.94l927.49,519.19c17.54,9.72,34.29,0.41,37.38-20.74l121.73-830.95
				C1505.56,614.43,1493.84,589.35,1476.3,579.62z"/>
			<g>
				<path class="st7" d="M1476.3,579.63L548.82,60.44c-17.54-9.72-34.25-0.39-37.34,20.77l-4.11,28.02l990.93,554.7l4.15-28.35
					C1505.56,614.43,1493.85,589.35,1476.3,579.63z"/>
				<g>
					<path class="st8" d="M543.06,81.12c7.03,1.61,12.44,9.99,12.07,18.71c-0.37,8.72-6.37,14.49-13.4,12.88
						c-7.03-1.61-12.44-9.98-12.07-18.71C530.02,85.28,536.02,79.51,543.06,81.12z"/>
					<path class="st8" d="M575.09,99.52c7.03,1.61,12.44,9.98,12.07,18.71c-0.37,8.72-6.37,14.49-13.41,12.88
						c-7.03-1.61-12.44-9.98-12.07-18.71C562.05,103.67,568.05,97.91,575.09,99.52z"/>
					<path class="st8" d="M609.75,119.72c7.03,1.61,12.44,9.99,12.07,18.71c-0.37,8.72-6.37,14.49-13.41,12.88
						c-7.03-1.61-12.44-9.98-12.07-18.71C596.71,123.88,602.71,118.11,609.75,119.72z"/>
				</g>
			</g>
		</g>
		<linearGradient id="SVGID_5_" gradientUnits="userSpaceOnUse" x1="1237.938" y1="992.1577" x2="1319.5338" y2="820.5499">
			<stop  offset="0" style="stop-color:#965CF2"/>
			<stop  offset="1" style="stop-color:#FF8ADC"/>
		</linearGradient>
		<path class="st9" d="M1363.51,867.69l-166.61-91.47c-9.66-5.35-19.13-6.11-27.03-3.03c-10.13,3.95-17.72,14.2-19.9,29.14
			l-18.89,135.49c-3.9,26.6,10.76,58.09,32.81,70.31l166.62,91.47c22.05,12.22,43.09,0.52,46.99-26.07l18.88-135.5
			C1400.27,911.44,1385.55,879.91,1363.51,867.69z"/>
		<linearGradient id="SVGID_6_" gradientUnits="userSpaceOnUse" x1="1227.3737" y1="688.6269" x2="1378.5325" y2="467.817">
			<stop  offset="0" style="stop-color:#965CF2"/>
			<stop  offset="1" style="stop-color:#FF8ADC"/>
		</linearGradient>
		<path class="st10" d="M1119.62,391.14l365.31,178.18l-9.68,9.88l-35.06,245.07c-3.58,25.14-22.71,36.28-42.67,24.86
			l-341.94-195.51l-29.7-66.25L1119.62,391.14z"/>
		<g>
			<linearGradient id="SVGID_7_" gradientUnits="userSpaceOnUse" x1="516.0884" y1="913.7199" x2="610.8613" y2="707.0172">
				<stop  offset="0" style="stop-color:#965CF2"/>
				<stop  offset="1" style="stop-color:#FF8ADC"/>
			</linearGradient>
			<path class="st11" d="M660.88,769.25L435.02,644.06l-7.55,11.53l-37.08,252.6l233.93,129.67c24.76,13.72,48.39,0.58,52.76-29.28
				l20.7-160.34C702.16,818.37,685.63,782.97,660.88,769.25z"/>
			<g>
				<g>
					<path class="st12" d="M650.88,824.64l-26.98,177.27l4.28,0.52l11.68-4.54c12.81-5.04,19.53-18.38,21.41-31.34l19.85-153.71
						c0.01-0.04,0.02-0.09,0.02-0.13c2.68-18.91-3-38.59-13.4-54.39c-5.6-8.51-12.96-16.31-22-21.22L177.6,477.62
						c-8.91-5.06-19.34-6.94-29.11-3.25l-10.3,4.02c-5.18,1.95-6.79,3.5-6.75,3.83C136.3,527.52,657.7,778.17,650.88,824.64z"/>
					<linearGradient id="SVGID_8_" gradientUnits="userSpaceOnUse" x1="400.594" y1="688.5922" x2="363.0517" y2="796.2132">
						<stop  offset="0" style="stop-color:#1C8EF4"/>
						<stop  offset="1" style="stop-color:#00CFDD"/>
					</linearGradient>
					<path class="st13" d="M633.95,741.74L165.83,482.25c-10.4-5.76-20.59-6.58-29.1-3.26c-10.91,4.25-19.07,15.29-21.43,31.37
						L95.46,664.08c-4.2,28.63,11.58,62.54,35.32,75.69L598.9,999.26c23.74,13.15,46.39,0.55,50.59-28.07l19.84-153.73
						C673.53,788.83,657.69,754.89,633.95,741.74z"/>
				</g>
				<g>
					<path class="st14" d="M628.4,789.58l-323.07-177.7c-2.49-1.38-4.93-1.57-6.96-0.78c-2.61,1.01-4.56,3.65-5.12,7.5l-1.78,10.79
						c-1,6.84,2.77,14.95,8.44,18.09l323.07,177.7c5.68,3.14,11.09,0.13,12.09-6.71l1.78-10.79
						C637.86,800.84,634.07,792.72,628.4,789.58L628.4,789.58z M448.49,831.38c5.67,3.14,9.46,11.26,8.46,18.1l-1.78,10.79
						c-1,6.84-6.41,9.85-12.09,6.71l-162.48-87.46c-5.67-3.14-9.45-11.25-8.44-18.09l1.78-10.79c0.57-3.85,2.52-6.49,5.12-7.5
						c2.03-0.79,4.47-0.6,6.96,0.78L448.49,831.38L448.49,831.38z M618.74,855.6c5.67,3.14,9.46,11.26,8.46,18.1l-1.78,10.79
						c-1,6.85-6.42,9.85-12.09,6.71L290.25,713.5c-5.67-3.14-9.45-11.25-8.44-18.09l1.79-10.79c0.56-3.85,2.52-6.49,5.12-7.5
						c2.03-0.8,4.47-0.6,6.96,0.77L618.74,855.6z"/>
					<path class="st14" d="M202.37,608.74c-15.28-8.47-31.48,2.95-31.32,25.06c0.07,11.44,4.93,23.22,12.58,30.6
						c2.01,1.94,4.1,3.48,6.19,4.64c15.25,8.45,31.38-2.96,31.26-24.97c-0.03-11.46-4.86-23.29-12.48-30.65
						C206.57,611.46,204.48,609.91,202.37,608.74L202.37,608.74z M187.65,679.42c-2.81-1.56-5.6-3.62-8.31-6.22
						c-10.32-9.91-16.78-25.77-16.93-41.17c-0.18-29.65,21.56-45.06,42.1-33.68c2.85,1.58,5.68,3.68,8.42,6.33
						c10.28,9.88,16.74,25.75,16.81,41.15C229.87,675.4,208.15,690.78,187.65,679.42L187.65,679.42z M257.59,654.22
						c3.57,1.98,5.71,7.18,4.74,11.66l-3.73,17.37c-0.96,4.43-4.63,6.41-8.21,4.43l-1.83-1.02c-2.74-1.51-5.63-0.69-7.23,2
						c-1.04,1.74-2.15,3.38-3.32,4.93c-1.86,2.44-2.17,6.34-0.74,9.83l0.96,2.36c1.84,4.49,0.74,9.6-2.43,11.32l-12.58,6.79
						c-1.61,0.87-3.43,0.74-5.1-0.18c-1.66-0.92-3.15-2.62-4.08-4.91l-0.97-2.3c-0.91-2.22-2.37-3.91-4.04-4.85
						c-0.96-0.53-1.99-0.8-3.02-0.77c-1.78,0.01-3.59-0.06-5.38-0.23c-2.87-0.27-5.27,1.76-6,5.16l-0.48,2.27
						c-0.96,4.43-4.63,6.41-8.21,4.43l-14.02-7.77c-3.58-1.99-5.71-7.18-4.76-11.62l0.49-2.26c0.73-3.4-0.37-7.37-2.74-10
						c-1.51-1.66-2.92-3.38-4.32-5.14c-0.8-1.05-1.71-1.85-2.67-2.39c-1.67-0.93-3.48-1.04-5.05-0.19l-1.64,0.85
						c-1.61,0.87-3.44,0.74-5.1-0.18c-1.66-0.92-3.15-2.63-4.08-4.91l-7.29-17.81c-1.83-4.48-0.73-9.6,2.43-11.32l1.66-0.9
						c2.47-1.33,3.73-4.71,3.2-8.47c-0.34-2.39-0.57-4.78-0.72-7.18c-0.23-3.7-2.19-7.21-4.93-8.73l-1.83-1.02
						c-3.58-1.98-5.7-7.18-4.75-11.61l3.74-17.37c0.96-4.48,4.64-6.47,8.21-4.48l1.83,1.01c2.75,1.52,5.63,0.7,7.23-1.99
						c1.04-1.74,2.15-3.38,3.33-4.93c1.85-2.39,2.16-6.3,0.72-9.79l-0.96-2.35c-1.82-4.54-0.73-9.61,2.45-11.37l12.58-6.8
						c1.61-0.86,3.44-0.74,5.1,0.18c1.66,0.92,3.15,2.63,4.08,4.91l0.96,2.35c0.91,2.22,2.37,3.92,4.04,4.85
						c0.96,0.53,1.98,0.81,3.02,0.78c1.79-0.05,3.6,0.01,5.38,0.18c2.87,0.32,5.26-1.71,5.99-5.11l0.49-2.27
						c0.96-4.48,4.64-6.46,8.21-4.48l14.03,7.77c3.57,1.98,5.7,7.18,4.74,11.66l-0.49,2.27c-0.73,3.4,0.37,7.36,2.72,9.93
						c1.51,1.66,2.96,3.4,4.34,5.22c0.8,1.05,1.71,1.85,2.67,2.38c1.67,0.93,3.48,1.04,5.04,0.19l1.66-0.9
						c1.61-0.87,3.44-0.74,5.1,0.18c1.66,0.92,3.15,2.62,4.08,4.91l7.28,17.81c1.83,4.54,0.74,9.61-2.44,11.37l-1.66,0.9
						c-2.47,1.33-3.73,4.71-3.19,8.42c0.33,2.39,0.57,4.78,0.72,7.17c0.23,3.71,2.18,7.22,4.93,8.74L257.59,654.22z"/>
				</g>
			</g>
		</g>
		<g>
			<linearGradient id="SVGID_9_" gradientUnits="userSpaceOnUse" x1="528.1664" y1="389.622" x2="604.9225" y2="132.9116">
				<stop  offset="0" style="stop-color:#965CF2"/>
				<stop  offset="1" style="stop-color:#FF8ADC"/>
			</linearGradient>
			<path class="st15" d="M608.07,183.05l-101.03-48.84l-39.88,249.53l-5.13,35.06l105.05,56.69c18.25,10.11,35.67,0.42,38.89-21.59
				l29.3-212.61C638.5,219.27,626.31,193.17,608.07,183.05z"/>
			<g>
				<path class="st12" d="M595.75,242.39l-31.48,203.4l3.29,0.4l8.98-3.49c9.85-3.88,15.02-14.13,16.46-24.1l26-185.29
					c0.01-0.04,0.01-0.07,0.01-0.1c2.06-14.54-2.31-29.68-10.3-41.82c-4.3-6.55-9.96-12.54-16.92-16.31L398.58,70.09
					c-6.85-3.89-14.88-5.33-22.39-2.5l-7.92,3.09c-3.98,1.5-5.22,2.7-5.19,2.94C366.81,108.46,600.99,206.66,595.75,242.39z"/>
				<linearGradient id="SVGID_10_" gradientUnits="userSpaceOnUse" x1="506.1348" y1="131.1742" x2="418.6438" y2="418.5475">
					<stop  offset="0" style="stop-color:#6D6AFE"/>
					<stop  offset="1" style="stop-color:#3FB0F7"/>
				</linearGradient>
				<path class="st16" d="M582.73,178.65l-193.2-105c-8-4.43-15.83-5.06-22.38-2.51c-8.39,3.27-14.67,11.75-16.48,24.12l-26,185.29
					c-3.23,22.02,8.91,48.09,27.16,58.2l193.21,105c18.25,10.11,35.67,0.43,38.89-21.59l25.99-185.3
					C613.16,214.86,600.98,188.76,582.73,178.65z"/>
				<path class="st17" d="M546.94,394.17l-194.1-104.19c-4.48-2.4-8.76,0.07-9.62,5.63c-0.84,5.37,2.07,11.7,6.54,14.11
					l194.1,104.18c4.48,2.41,8.84-0.04,9.71-5.59C554.39,402.95,551.41,396.57,546.94,394.17L546.94,394.17z M555.61,337.77
					c4.47,2.41,7.45,8.78,6.62,14.14c-0.87,5.56-5.23,8-9.71,5.59l-194.1-104.19c-4.48-2.41-7.39-8.73-6.54-14.11
					c0.87-5.56,5.14-8.03,9.62-5.63L555.61,337.77L555.61,337.77z M575.58,209.86l-194.1-104.19c-4.47-2.41-8.75,0.07-9.59,5.44
					l-2.16,13.8c-0.83,5.37,2.08,11.7,6.55,14.1l194.1,104.19c4.47,2.4,8.83-0.03,9.67-5.4l2.15-13.8
					C583.05,218.64,580.05,212.27,575.58,209.86L575.58,209.86z M564.35,281.81c4.47,2.4,7.47,8.69,6.64,14.06
					c-0.89,5.66-5.23,7.99-9.7,5.59l-194.1-104.19c-4.48-2.4-7.4-8.64-6.57-14c0.89-5.65,5.16-8.03,9.63-5.64L564.35,281.81z"/>
			</g>
		</g>
		<g>
			<path class="st12" d="M1354.71,930.81l-22.97,141.65l3.58,0.43l9.77-3.79c10.71-4.22,16.33-15.37,17.9-26.2l17-121.96
				c0.01-0.04,0.02-0.08,0.02-0.11c2.24-15.81-2.51-32.27-11.2-45.48c-4.68-7.12-10.83-13.64-18.4-17.74l-149.99-82.34
				c-7.45-4.23-16.17-5.8-24.35-2.72l-8.61,3.36c-4.33,1.63-5.67,2.93-5.64,3.2C1165.88,817,1360.41,891.95,1354.71,930.81z"/>
			<path class="st18" d="M1340.56,861.49l-149.98-82.34c-8.7-4.82-17.22-5.5-24.33-2.73c-9.12,3.55-15.95,12.78-17.92,26.23
				l-17,121.97c-3.51,23.94,9.69,52.29,29.53,63.29l149.98,82.34c19.85,11,38.79,0.47,42.3-23.47l17-121.98
				C1373.65,900.87,1360.4,872.49,1340.56,861.49z"/>
			<linearGradient id="SVGID_11_" gradientUnits="userSpaceOnUse" x1="1244.6373" y1="936.5681" x2="1270.3055" y2="886.7145">
				<stop  offset="0" style="stop-color:#965CF2"/>
				<stop  offset="1" style="stop-color:#FF8ADC"/>
			</linearGradient>
			<path class="st19" d="M1275.22,869.95c1.12,2.25,1.53,4.51,1.24,6.98c-0.21,1.77-1.16,4.78-2.72,8.93l-31.96,88.76
				c-1.03,2.97-1.98,5.22-2.66,6.84c-0.78,1.64-1.67,2.65-2.89,3.1c-1.11,0.49-2.64,0.15-4.61-1.07c-4.79-2.96-6.91-7.16-6.31-12.24
				c0.16-1.34,1.02-4.41,2.64-9.25l31.87-88.81c1.63-4.71,3.08-7.76,4.29-9.18c1.16-1.44,3.17-1.26,5.86,0.41
				C1272.4,865.93,1274.13,867.72,1275.22,869.95L1275.22,869.95z M1283.75,893l-2.93,24.68l47.22,54.77l-52.93-6.7l-2.94,24.79
				l76.16,5.95l2.49-21.01L1283.75,893L1283.75,893z M1150.63,874.17l67.1,82.57l2.94-24.79l-46.99-55.12l52.68,7.16l2.97-25
				l-76.18-6.08L1150.63,874.17z"/>
		</g>
		<g>
			<g>
				<path class="st18" d="M765.83,875.52c2.7-18.44,16.74-26.59,31.36-18.16l217.38,122.58c14.61,8.42,24.29,30.23,21.59,48.67
					l-28.92,196.78c-2.7,18.44-16.76,26.58-31.37,18.16L758.5,1120.97c-14.63-8.43-24.29-30.23-21.59-48.67L765.83,875.52z"/>
				<g>
					<g>
						<linearGradient id="SVGID_12_" gradientUnits="userSpaceOnUse" x1="935.6966" y1="1011.7134" x2="873.9405" y2="1107.7904">
							<stop  offset="0" style="stop-color:#FF66BC"/>
							<stop  offset="0.56" style="stop-color:#FF8ADC"/>
							<stop  offset="1" style="stop-color:#FFBBA8"/>
						</linearGradient>
						<polygon class="st20" points="792.28,1076.11 868.11,971.07 882.81,1082.45 919.75,1042.3 941.51,1161.4 						"/>
						<path class="st21" d="M917.2,975.73c8.11,1.65,14.21,11.14,13.63,21.2c-0.58,10.06-7.62,16.87-15.73,15.22
							c-8.11-1.65-14.21-11.14-13.64-21.2C902.05,980.89,909.09,974.08,917.2,975.73z"/>
					</g>
					<linearGradient id="SVGID_13_" gradientUnits="userSpaceOnUse" x1="952.2833" y1="1046.0881" x2="791.257" y2="1053.0029">
						<stop  offset="0" style="stop-color:#FF66BC"/>
						<stop  offset="0.56" style="stop-color:#FF8ADC"/>
						<stop  offset="1" style="stop-color:#FFBBA8"/>
					</linearGradient>
					<path class="st22" d="M783.49,903.68c2.24-15.32,13.91-22.09,26.06-15.09l180.62,101.85c12.14,7,20.18,25.12,17.94,40.44
						l-24.02,163.5c-2.24,15.32-13.92,22.08-26.06,15.09L777.4,1107.62c-12.15-7-20.18-25.12-17.94-40.44L783.49,903.68z"/>
				</g>
			</g>
			<g>
				<path class="st18" d="M1059.2,1045.91c2.7-18.44,16.74-26.59,31.36-18.16l217.38,122.58c14.61,8.42,24.29,30.23,21.59,48.67
					l-28.91,196.78c-2.7,18.44-16.76,26.58-31.37,18.16l-217.38-122.58c-14.63-8.43-24.29-30.23-21.59-48.67L1059.2,1045.91z"/>
				<g>
					<g>
						<linearGradient id="SVGID_14_" gradientUnits="userSpaceOnUse" x1="1173.0819" y1="1253.9191" x2="1202.7938" y2="1172.2661">
							<stop  offset="0" style="stop-color:#965CF2"/>
							<stop  offset="1" style="stop-color:#FF8ADC"/>
						</linearGradient>
						<polygon class="st23" points="1085.65,1246.5 1161.48,1141.46 1176.18,1252.84 1213.12,1212.69 1234.88,1331.79 						"/>
						<path class="st21" d="M1210.57,1146.12c8.11,1.65,14.21,11.14,13.63,21.2c-0.58,10.06-7.62,16.87-15.73,15.22
							c-8.11-1.65-14.21-11.14-13.63-21.2C1195.41,1151.28,1202.46,1144.47,1210.57,1146.12z"/>
					</g>
					<linearGradient id="SVGID_15_" gradientUnits="userSpaceOnUse" x1="1180.8047" y1="1287.908" x2="1169.9509" y2="1084.4156">
						<stop  offset="0" style="stop-color:#965CF2"/>
						<stop  offset="1" style="stop-color:#FF8ADC"/>
					</linearGradient>
					<path class="st24" d="M1076.86,1074.07c2.24-15.32,13.91-22.09,26.06-15.09l180.62,101.85c12.14,7,20.18,25.12,17.94,40.44
						l-24.03,163.5c-2.24,15.32-13.92,22.08-26.06,15.09l-180.62-101.85c-12.15-7-20.18-25.12-17.94-40.44L1076.86,1074.07z"/>
				</g>
			</g>
		</g>
		<g>
			<linearGradient id="SVGID_16_" gradientUnits="userSpaceOnUse" x1="779.5518" y1="50.8336" x2="779.7583" y2="196.7446">
				<stop  offset="0" style="stop-color:#5A2D68"/>
				<stop  offset="1" style="stop-color:#22043D"/>
			</linearGradient>
			<path class="st25" d="M730.52,56.9c-19.35,11.36-10.08,37.59,7.5,65.33c24.94,39.35-35.43,83.65,46.63,106.06
				c-8.55-24.02,27.01-32.81,44.49-65.6c20.16-37.84,8.98-75.8-16.92-108.12C791.13,28.24,752.55,28.57,730.52,56.9z"/>
			<g>
				<linearGradient id="SVGID_17_" gradientUnits="userSpaceOnUse" x1="783.6352" y1="300.0231" x2="777.3781" y2="297.7999">
					<stop  offset="0" style="stop-color:#FF8A78"/>
					<stop  offset="1" style="stop-color:#FFA799"/>
				</linearGradient>
				<path class="st26" d="M768.83,305.57l4.73,17.84c1.49,3.82,2.38,4.85,7.87,2.37c3-1.45,2.05-7.7,1.22-12.26
					c-0.91-5.02-0.35-9.37,0.21-11.26c0.64-2.18,1.99-3.52,3.44-4.69c3.28-2.63,7.11-4.39,4.75-12.76
					c-1.23-4.37-0.94-7.62-1.03-12.16l-11.43-0.75c0.26,10.2-4.27,17.08-8.99,25.67C767.32,301.71,767.82,300.93,768.83,305.57z"/>
				<g>
					<linearGradient id="SVGID_18_" gradientUnits="userSpaceOnUse" x1="786.6552" y1="250.3547" x2="785.7816" y2="125.0667">
						<stop  offset="0" style="stop-color:#965CF2"/>
						<stop  offset="1" style="stop-color:#FF8ADC"/>
					</linearGradient>
					<path class="st27" d="M809.54,192.34l-0.08-0.57c-0.01-0.82-0.14-1.65-0.36-2.45c-2.9-19.4-8.81-52.09-13.41-69.14
						c-8.03-29.77-33.51-19.48-33.25-1.71c0.25,16.81,15.89,53.21,19.49,68.99c-1.28,11.49-6.08,68.88-4.42,78.9
						c0.32,1.91,1.15,3.15,1.06,5.26c-0.07,1.59-0.5,2.23-0.97,4.15c4.5,0.6,9,1.23,13.43,2.28c0.17-1.23,0.27-3.33,0.67-4.47
						c0.77-2.16,2.75-3.26,3.64-5.09c4.39-8.99,11.65-56.16,13.65-71.52C809.34,195.62,809.53,194.09,809.54,192.34z"/>
					<path class="st28" d="M806.22,210.5c1.71-4.12,3.64-16.96,3.62-22.66c-0.04-11.82-4.51-21.61-5.89-29.12l-41.31-41.12
						c0.26,7.7,9.25,28.22,12.93,43.36C781.31,184.59,793.81,204.94,806.22,210.5z"/>
				</g>
			</g>
			<linearGradient id="SVGID_19_" gradientUnits="userSpaceOnUse" x1="866.3811" y1="221.6733" x2="836.4828" y2="126.5841">
				<stop  offset="0" style="stop-color:#965CF2"/>
				<stop  offset="1" style="stop-color:#FF8ADC"/>
			</linearGradient>
			<path class="st29" d="M934.02,213.3c-5.83,19.26-33.17,34.43-60.58,28.4c-6.54-7.28-8.48-5.01-14.47-10.88
				c-5.45-5.34-12.17-12.64-21.57-22.18c-5.23-8.21-25.85-11.56-34.95-15.13c-10.28-4.03-19.4-12.44-23.65-28.77
				c-2.06-7.92-11.04-32.15-14.26-40.23c-9.33-23.35,10.91-32.08,24.6-23.43c8.77,3.66,28.09,8.25,37.65,10.03
				c5.7,1.06,9.25,1.76,16.7,2.48c11.37,1.1,23.72,9.4,32.55,16.43C899.75,148.91,931.94,186.89,934.02,213.3z"/>
			<g>
				<linearGradient id="SVGID_20_" gradientUnits="userSpaceOnUse" x1="792.6141" y1="113.6147" x2="800.1792" y2="122.8114">
					<stop  offset="0" style="stop-color:#FF8A78"/>
					<stop  offset="1" style="stop-color:#FFA799"/>
				</linearGradient>
				<path class="st30" d="M796.65,91.65c2.5,10.17,8.41,19.95,16.29,27.48c-2.9,10.37-22.68,17.84-28.98,10.83
					c-0.49-1.39-1.15-4.49-1.83-5.5c-1.04-3.04-2.07-5.71-2.96-7.84L796.65,91.65z"/>
				<g>
					<path class="st31" d="M739.19,77.79c0.97,7.88,3.48,14.52,10.28,21.31c1.73,1.72,2.42,3.13,2.86,4.76
						c2.58,9.41,4.6,11.33,10.64,15.64c5.87,4.19,8.07,7.08,11.42,7.44c3.44,0.36,6.61-1.5,9.13-3.31
						c5.16-3.69,10.94-13.79,13.65-20.46c2.01-4.94,0.76-6.19-0.51-10.88c1.49-8.63-4.48-9.18-6.47-8.11
						c-5.7,3.06-1.87,9.38-3.77,13.01C766.38,101.61,745.65,83.64,739.19,77.79z"/>
					<path class="st32" d="M739.19,77.79c11.13,18.53,35.64,23.21,47.23,19.39C766.38,101.61,745.65,83.64,739.19,77.79z"/>
				</g>
			</g>
			<path class="st28" d="M868.76,236.94c-0.16,0.04-0.33,0.07-0.5,0.1c-3.03-2-5.23-2.25-9.28-6.22
				c-5.45-5.34-12.17-12.64-21.57-22.18c-2.67-4.18-9.33-7.1-16.43-9.44c1.12-19.17,0.62-62.99,6.91-68.69
				c8.67-7.87,20.61-13.1,30.58-2.86C877.27,146.98,858.55,218.51,868.76,236.94z"/>
			<g>
				<polygon class="st7" points="842.23,262.7 830.31,217.87 838.55,210.53 913.74,252.74 906.75,260.58 874.09,282.44 				"/>
				<path class="st12" d="M830.35,218l-5.48-17.5c31.28,17.36,62.56,34.72,93.84,52.09l-12.09,8.09L830.35,218z"/>
			</g>
		</g>
		<g>
			<linearGradient id="SVGID_21_" gradientUnits="userSpaceOnUse" x1="899.8216" y1="790.706" x2="754.15" y2="217.6467">
				<stop  offset="0" style="stop-color:#965CF2"/>
				<stop  offset="1" style="stop-color:#FF8ADC"/>
			</linearGradient>
			<path class="st33" d="M676.69,324.07c4.87-35.92,32.12-51.39,60.86-34.47l296.87,173.33c28.71,16.9,48.09,59.79,43.22,95.71
				l-45.25,342.38c-4.87,35.92-32.15,51.37-60.87,34.47L674.66,762.16c-28.75-16.92-48.09-59.79-43.22-95.7L676.69,324.07z"/>
			<g>
				<path class="st12" d="M687.21,322.09c0.53-3.88,1.29-21.23,5.95-24.76c6.28-4.76,17.75-11.69,21.14-12.59
					c8.84-2.36,19.05-0.81,29.46,5.32l277.4,160.75c26.68,15.7,44.68,55.56,40.16,88.93l-42.04,318.15
					c-1.58,11.66-5.7,20.99-11.53,27.54c-3.94,4.43-13.17,10.63-20.85,14.6c-7.95,4.11-19.13-7.14-24.17-10.11l-277.4-160.75
					c-26.72-15.72-44.69-55.56-40.16-88.93L687.21,322.09z"/>
				<path class="st18" d="M677.45,328.91c4.52-33.38,29.84-47.75,56.55-32.03l275.85,161.06c26.68,15.7,44.68,55.56,40.16,88.93
					l-42.04,318.15c-4.52,33.37-29.88,47.73-56.56,32.03L675.57,735.99c-26.72-15.72-44.69-55.56-40.16-88.93L677.45,328.91z"/>
				<g>
					<linearGradient id="SVGID_22_" gradientUnits="userSpaceOnUse" x1="909.5538" y1="379.6958" x2="857.5885" y2="453.576">
						<stop  offset="0" style="stop-color:#6D6AFE"/>
						<stop  offset="1" style="stop-color:#3FB0F7"/>
					</linearGradient>
					<path class="st34" d="M677.45,328.91c4.52-33.38,29.84-47.75,56.55-32.03l275.85,161.06c26.68,15.7,44.68,55.56,40.16,88.93
						l-4.31,31.61L673.09,360.92L677.45,328.91z"/>
					<g>
						<path class="st18" d="M721.8,330.16c6.08,1.44,10.72,8.72,10.37,16.26c-0.35,7.54-5.56,12.48-11.64,11.04
							c-6.08-1.44-10.72-8.72-10.37-16.26C710.51,333.66,715.72,328.72,721.8,330.16z"/>
						<path class="st18" d="M754.23,350.38c6.08,1.44,10.72,8.72,10.37,16.26c-0.35,7.54-5.56,12.48-11.64,11.04
							c-6.08-1.44-10.72-8.72-10.37-16.26C742.94,353.88,748.15,348.94,754.23,350.38z"/>
						<path class="st18" d="M786.66,370.59c6.08,1.44,10.72,8.72,10.37,16.26c-0.35,7.54-5.56,12.48-11.64,11.04
							c-6.08-1.44-10.72-8.72-10.37-16.26C775.37,374.1,780.58,369.15,786.66,370.59z"/>
					</g>
				</g>
				<g>
					<g>
						<g>
							<linearGradient id="SVGID_23_" gradientUnits="userSpaceOnUse" x1="742.7589" y1="473.6063" x2="730.6175" y2="490.7845">
								<stop  offset="0" style="stop-color:#6D6AFE"/>
								<stop  offset="1" style="stop-color:#3FB0F7"/>
							</linearGradient>
							<path class="st35" d="M735.96,424.13c28.16,6.68,49.67,40.42,48.04,75.36c-1.63,34.94-25.78,57.85-53.94,51.17
								c-28.16-6.68-49.67-40.42-48.04-75.36C683.65,440.36,707.8,417.45,735.96,424.13z"/>
							<linearGradient id="SVGID_24_" gradientUnits="userSpaceOnUse" x1="752.6531" y1="472.5035" x2="715.4441" y2="500.7172">
								<stop  offset="0" style="stop-color:#6D6AFE"/>
								<stop  offset="1" style="stop-color:#3FB0F7"/>
							</linearGradient>
							<path class="st36" d="M734.6,453.28c15.18,3.6,26.78,21.79,25.9,40.63c-0.88,18.84-13.9,31.19-29.08,27.59
								c-15.18-3.6-26.78-21.79-25.9-40.63C706.4,462.04,719.42,449.68,734.6,453.28z"/>
						</g>
						<g>
							<path class="st37" d="M800.94,491.93c1.01-7.42,6.63-10.53,12.55-6.93l180.3,103.93c5.92,3.6,9.91,12.55,8.91,19.97
								l-1.95,14.68c-1.01,7.42-6.63,10.53-12.55,6.93l-180.3-103.93c-5.93-3.6-9.91-12.55-8.91-19.97L800.94,491.93z"/>
							<path class="st37" d="M793.77,545.93c0.59-4.38,3.91-6.22,7.41-4.09l106.47,61.37c3.5,2.13,5.85,7.41,5.26,11.8l-1.15,8.67
								c-0.6,4.38-3.92,6.22-7.41,4.09L797.88,566.4c-3.5-2.13-5.85-7.41-5.26-11.79L793.77,545.93z"/>
						</g>
					</g>
					<g>
						<path class="st37" d="M673.42,559.7c0.73-5.4,4.82-7.67,9.14-5.04L993.95,733.3c4.31,2.62,7.22,9.14,6.49,14.55l-0.97,7.08
							c-0.73,5.41-4.83,7.67-9.14,5.04L678.94,581.33c-4.32-2.62-7.22-9.14-6.49-14.55L673.42,559.7z"/>
						<path class="st37" d="M666.91,612.1c0.73-5.4,4.82-7.67,9.14-5.04L987.44,785.7c4.31,2.62,7.22,9.14,6.49,14.55l-0.97,7.08
							c-0.73,5.41-4.83,7.67-9.14,5.05L672.43,633.73c-4.32-2.62-7.22-9.14-6.49-14.55L666.91,612.1z"/>
						<path class="st37" d="M660.09,662.02c0.73-5.4,4.82-7.67,9.14-5.04l311.38,178.65c4.31,2.62,7.22,9.14,6.49,14.55l-0.97,7.08
							c-0.73,5.41-4.83,7.67-9.14,5.05L665.61,683.64c-4.32-2.62-7.22-9.14-6.49-14.55L660.09,662.02z"/>
					</g>
				</g>
			</g>
		</g>
		<g>
			<g>
				<path class="st12" d="M1062.42,293.12c0.99-6.92-3.62-12.26-0.61-16.85c3.25-4.96,14.29-8.5,19.07-10.23
					c6.78-2.44,14.75-1.65,22.87,3l331.2,189.36c19.34,11.06,32.23,39.82,28.76,64.17l-37.18,259.85
					c-1.7,11.93-7.01,20.61-14.27,25.05c-4.43,2.72-16.57,7.91-22.07,7.24c-3.87-0.47-0.93-5.89-5-8.21L1054,617.14
					c-19.36-11.08-32.23-39.82-28.77-64.17L1062.42,293.12z"/>
				<linearGradient id="SVGID_25_" gradientUnits="userSpaceOnUse" x1="1258.907" y1="460.5454" x2="1203.9819" y2="643.6272">
					<stop  offset="0" style="stop-color:#6D6AFE"/>
					<stop  offset="1" style="stop-color:#3FB0F7"/>
				</linearGradient>
				<path class="st38" d="M1052.49,297.08c3.47-24.35,21.97-35.15,41.33-24.08l331.2,189.36c19.34,11.06,32.23,39.82,28.76,64.17
					l-37.18,259.85c-3.47,24.35-21.99,35.14-41.33,24.07l-331.2-189.36c-19.36-11.07-32.23-39.82-28.76-64.17L1052.49,297.08z"/>
			</g>
			<g>
				<path class="st39" d="M1026.78,568.84c0.3-2.11,1.9-3.02,3.58-2.01l367.33,210.62c1.67,1.01,2.79,3.54,2.49,5.65l-0.97,6.41
					c-0.3,2.11-1.9,3.01-3.58,2.01l-367.33-210.62c-1.67-1.01-2.79-3.54-2.49-5.65L1026.78,568.84z"/>
				<path class="st40" d="M1026.95,569.04c0.29-2.04,1.84-2.91,3.45-1.94l148.16,84.93c1.61,0.97,2.69,3.41,2.4,5.45l-0.94,6.18
					c-0.29,2.04-1.84,2.91-3.45,1.94l-148.16-84.93c-1.62-0.97-2.69-3.41-2.4-5.45L1026.95,569.04z"/>
			</g>
			<g>
				<linearGradient id="SVGID_26_" gradientUnits="userSpaceOnUse" x1="1216.9828" y1="549.8878" x2="1242.1855" y2="472.3882">
					<stop  offset="0" style="stop-color:#965CF2"/>
					<stop  offset="1" style="stop-color:#FF8ADC"/>
				</linearGradient>
				<path class="st41" d="M1172.16,444.01c0.83-5.79,5.23-8.36,9.83-5.73l101.96,58.32c4.6,2.63,7.67,9.47,6.84,15.27l-13.76,97.02
					c-0.83,5.79-5.23,8.36-9.84,5.73l-101.96-58.32c-4.61-2.64-7.67-9.48-6.84-15.27L1172.16,444.01z"/>
				<linearGradient id="SVGID_27_" gradientUnits="userSpaceOnUse" x1="1212.9885" y1="546.2318" x2="1235.9591" y2="507.1089">
					<stop  offset="0" style="stop-color:#6D6AFE"/>
					<stop  offset="1" style="stop-color:#3FB0F7"/>
				</linearGradient>
				<path class="st42" d="M1230.33,486.23c-17.65-10.1-34.5-0.26-37.67,21.94c-3.16,22.22,8.56,48.4,26.22,58.5
					c17.63,10.09,34.5,0.26,37.67-21.96C1259.71,522.51,1247.97,496.32,1230.33,486.23z"/>
				<polygon class="st18" points="1214,497.02 1208.43,537.2 1242.48,538.13 				"/>
			</g>
		</g>
		<g>
			<linearGradient id="SVGID_28_" gradientUnits="userSpaceOnUse" x1="807.1322" y1="319.3128" x2="801.8951" y2="316.8914">
				<stop  offset="0" style="stop-color:#FF8A78"/>
				<stop  offset="1" style="stop-color:#FFA799"/>
			</linearGradient>
			<path class="st43" d="M817.4,291.51c-2.89,4.83-1.37,15.3-2.31,20.28c-0.74,3.91-2.92,11.35-4.43,14.54
				c-0.61,1.28-19.81,18.34-20.93,17.48c-2.53-1.95-4.18-15.42-0.85-19.34c3.39-3.99,6.13-7.74,6.7-10.95
				c0.57-3.27,0.38-13.86,1.77-15.5c3.15-3.72,6.44-4.9,7.85-9.55L817.4,291.51z"/>
			<linearGradient id="SVGID_29_" gradientUnits="userSpaceOnUse" x1="838.7773" y1="267.4875" x2="827.6551" y2="147.8517">
				<stop  offset="0" style="stop-color:#965CF2"/>
				<stop  offset="1" style="stop-color:#FF8ADC"/>
			</linearGradient>
			<path class="st44" d="M854.77,226.34c0.29-1.02,0.52-2.14,0.72-3.37c5-20.68,10.08-56.07,9.43-76.57
				c-0.5-15.66-8.12-28.91-26.49-23.81c-5.65,1.57-12.18,5.86-13.01,13.29c-1,8.9,0.33,23.68,1.17,38.78
				c0.67,12.07,0.61,33.83,1.07,42.65c-0.08,0.27-0.16,0.54-0.23,0.82c-5.88,11.71-19.57,49.94-22.44,62.34
				c-0.48,2.07-0.03,4.3-0.05,5.73c-0.01,1.21-0.48,2.69-1.49,4.61c4.16,3.59,7.84,5.33,12.59,6.49c0.51-1.27,1.85-3.43,2.57-4.54
				c0.79-1.22,4.47-2.37,5.91-4.08c7.61-9.12,27.7-50.81,30.15-61.9C854.71,226.64,854.74,226.49,854.77,226.34z"/>
		</g>
		<g>
			<path class="st4" d="M561.33,1291.76l166.75-94.97c18.18-8.31,44.2-14.92,62.72-5.28c16.87,8.78,44.67,26.76,56.97,33.77
				c9.34,5.32,41.75,24.74,21.56,35.72c-59.38,32.29-118.15,68.6-178.45,101.41c-11.4,6.2-28.09,8.45-45.6,6.99
				c-17.44-1.45-35.32-6.53-49.39-14.71c-10.02-5.83-19.88-11.57-29.57-17.21c-13.08-7.62-20.02-16.62-20.7-24.95
				C544.95,1304.39,550.17,1296.85,561.33,1291.76z"/>
			<g>
				<g>
					<g>
						<path class="st18" d="M622.78,1286.72c3.26-0.07,14.27-10.41,24.69-5.19c12.52,6.27,36.28,0.72,48.28,3.6
							c2.14,0.51,6.31-1.06,7.14,0.41c2.59,4.59,5.09,11.47-1.27,15.97c-4.68,3.31-14.69,7.69-21.26,10.01
							c-6.97,2.47-18.9,6.36-26.89,7.61c-8.85,1.39-12.89,1.96-16.21,4.51c-4.74,2.39-9.63,3.41-12.36,2.97
							c-5.84-0.93-12.65-4.35-15.76-11c-1-2.13-1.02-11.42,0.12-17.45c0.9-4.76,3.5-10.18,5.58-15.24L622.78,1286.72z"/>
						<path class="st45" d="M648.38,1264.48c-3.96,9.51-2.74,24.22-12.13,29.32c-6.27,3.41-16.1,3.44-20.38-6.3
							c-2.39-5.44,0.78-14.72,0.08-26.66L648.38,1264.48z"/>
						<path class="st46" d="M650.99,1279.21c7.19,2.09,27.04,0.69,39.59,1.71c5.39,0.44,10.23,0.4,12.75,5.29
							c2.32,4.51,1.1,8.37-4.15,12.08c-4.68,3.31-12.61,7.08-19.18,9.41c-6.97,2.47-18.9,6.36-26.89,7.61
							c-8.86,1.38-12.89,1.96-16.21,4.51c-4.74,2.39-9.63,3.41-12.36,2.98c-5.84-0.93-12.65-5.04-15.76-11.7
							c-0.99-2.13-1.03-10.73,0.12-16.76c0.22-1.15,0.54-2.34,0.92-3.55c0.99-9.45,4.11-13.26,7.05-11.65
							c4.03,2.21,5.54,6.2,7.08,9.47c1.3,2.77,3.24,4.51,5.47,5.22c4.81,1.52,9.21-1.17,12.05-5.3c1.59-2.76,2.53-6.1,3.3-9.57
							c0.01-0.32,0.02-0.64,0.01-0.96c0.94-8.26,4.96-7.54,4.35-5.8C648.58,1273.81,648.81,1277.52,650.99,1279.21z"/>
						<path class="st18" d="M700.83,1284.82c-0.09,3.19,4.79,3.49,3.38,9.1c2.35-2.3-0.93-8.92-2.38-9.93
							C701.23,1283.58,700.73,1283.41,700.83,1284.82z"/>
					</g>
					<g>
						<path class="st18" d="M704.58,1253.99c3.04-1.19,9.82-14.69,21.4-13.37c4.67,0.53,12.19-0.69,19.81-2.85
							c12.16-3.46,29.1-14.32,31.99-12.55c6.3,3.87,6.8,10.94,2.38,17.35c-3.25,4.72-9.4,10.99-14.77,15.43
							c-5.69,4.72-13.77,11.93-20.85,15.85c-6.69,3.71-8.91,3.38-13.67,9.81c-3.63,3.87-7.87,6.17-10.58,6.7
							c-6.95,1.36-17.05-3.1-20.68-7.76c-2.31-7.48-6.32-14.56-3.75-25.78L704.58,1253.99z"/>
						<path class="st45" d="M720.64,1222.14c-0.19,10.3,6.35,23.53-0.5,31.73c-4.58,5.48-13.7,9.12-21.27,1.63
							c-4.22-4.18-4.69-13.98-9.73-24.82L720.64,1222.14z"/>
						<path class="st46" d="M742.67,1234.7c0.69-0.18,1.38-0.37,2.08-0.57c12.16-3.46,28.41-11.83,31.3-10.05
							c6.3,3.88,7.5,8.45,3.08,14.86c-3.25,4.72-9.4,10.99-14.77,15.43c-5.69,4.72-13.77,11.93-20.84,15.85
							c-6.69,3.71-8.91,3.38-13.67,9.81c-3.63,3.87-7.87,6.17-10.58,6.7c-6.95,1.36-17.35-3.15-20.98-7.81
							c-1.72-5.57-4.07-10.87-4.26-17.86c-1.01-9.16-0.38-13.82,3.6-13.7c7.41,0.22,10.47,4.12,13.53,6.03
							c6.59,4.11,11.01-1.2,12.09-7.77c0.2-2.76-0.13-5.7-0.6-8.68c-0.1-0.31-0.22-0.61-0.34-0.9c-2.16-8.03,1.84-8.83,1.91-6.99
							c0.16,4.17,2.77,6.51,6.12,7.01C734.32,1236.66,739.41,1234.97,742.67,1234.7z"/>
						<path class="st18" d="M775.3,1225.1c1.29,2.92,5.83,1.09,6.97,6.76c1.13-3.09-4.68-7.65-6.43-7.93
							C775.13,1223.81,774.6,1223.87,775.3,1225.1z"/>
					</g>
					<g>
						<linearGradient id="SVGID_30_" gradientUnits="userSpaceOnUse" x1="702.4476" y1="985.8486" x2="663.7162" y2="1171.147">
							<stop  offset="0" style="stop-color:#40457F"/>
							<stop  offset="1" style="stop-color:#1E2353"/>
						</linearGradient>
						<path class="st47" d="M713.64,944.03c2.66,29.84,17.62,125.13,13.46,151.29c-6.26,39.34-4.47,86.87-4.4,128.62
							c-1.06,17.54-25.18,26.71-32.2,15.56c-5.64-37.31-13.66-70-16.92-90.73c-3.65-23.22-2.45-51.42,3.44-66.68
							c-2.42-16.67-13.78-59.67-23.28-89.47c-3.43-10.75-22.84-45.49-2.75-80.03L713.64,944.03z"/>
						<linearGradient id="SVGID_31_" gradientUnits="userSpaceOnUse" x1="710.9763" y1="1222.8716" x2="696.4321" y2="1243.7384">
							<stop  offset="0" style="stop-color:#3773B9"/>
							<stop  offset="1" style="stop-color:#003C76"/>
						</linearGradient>
						<path class="st48" d="M723.09,1212.75c0.02,3.1-0.09,7.81-0.09,10.85c-1.06,17.54-25.48,27.06-32.5,15.91
							c-0.42-2.75-1.02-5.48-1.46-8.17C698.48,1241.51,716.98,1228.29,723.09,1212.75z"/>
						<path class="st2" d="M727.74,1077.57c-7.86,39.45-30.11,92.15-42.26,131.82c-6.32-33.99-22.14-91.87-8.46-127.29
							c-1.38-9.49-5.66-27.53-10.84-46.8c10.53-19.96,0.47-35.89,5.44-63.99c27.87-4.86-14.19-38.87,44.78-3.05
							C721.68,1010.6,726.63,1037.22,727.74,1077.57z"/>
					</g>
					<g>
						<linearGradient id="SVGID_32_" gradientUnits="userSpaceOnUse" x1="736.9736" y1="1006.77" x2="604.8929" y2="1186.9125">
							<stop  offset="0" style="stop-color:#40457F"/>
							<stop  offset="1" style="stop-color:#1E2353"/>
						</linearGradient>
						<path class="st49" d="M711.71,1114.99c-16.08,36.39-45.74,107.8-61.52,152.46c-8.16,11.86-37.27,10.63-37.21-0.44
							c6.43-37.35,13.98-94.95,27.38-127.7c4.1-10.02,19.24-34.15,24.7-41.3c4.24-16.48,9.56-61,13.66-85.09
							c-3.68-19.93-19.76-53.26,11.13-82.23c12.46,8.87,51,14.41,68.48,4.54C761.16,1013.97,741.83,1046.8,711.71,1114.99z"/>
						<linearGradient id="SVGID_33_" gradientUnits="userSpaceOnUse" x1="636.4918" y1="1265.4153" x2="614.5095" y2="1271.0349">
							<stop  offset="0" style="stop-color:#3773B9"/>
							<stop  offset="1" style="stop-color:#003C76"/>
						</linearGradient>
						<path class="st50" d="M653.46,1259.67c-0.7,1.95-2.1,5.9-2.76,7.76c-8.4,12.21-38.36,10.94-38.31-0.45
							c0.32-1.85,0.64-3.74,0.96-5.68C620.5,1268.59,642.1,1268.68,653.46,1259.67z"/>
					</g>
				</g>
				<g>
					<g>
						<linearGradient id="SVGID_34_" gradientUnits="userSpaceOnUse" x1="774.0952" y1="571.9299" x2="801.9033" y2="532.1851">
							<stop  offset="0" style="stop-color:#FF8A78"/>
							<stop  offset="1" style="stop-color:#FFA799"/>
						</linearGradient>
						<path class="st51" d="M810.28,507.68c-1.14,2.41-2.24,4.85-3.43,7.24l-4.92,9.84c-1.05-4.82-4.9-6.67-7.86-4.24
							c-0.9,0.73-1.8,1.81-2.4,3.22c-0.47-1.32-4.2-4.28-9.23,2.88c-3.14-0.34-4.8,0.99-6.12,3.53c-0.79,1.52-1.48,3.34-2.11,5.16
							c-0.9,2.57-1.48,4.75-1.47,6.99c0.03,4.74,0.24,9.89,0.1,15.55c-0.15,6.15-7.12,13.94-10.91,18.42l22.83,7.24
							c3.49-4.38,5.37-7.55,8.89-11.11c3.58-3.63,8.11-4.06,11.53-6.86c1.91-1.57,3.01-3.64,6.26-8.25
							c2.69-3.81,4.16-7.93,6.73-12.1c2.5-4.32,2.35-3.37,2.6-8.21c0.2-3.74,1.41-7.43,1.71-9.7c-4.69-2.34-8.39,3.45-8.35,9.09
							c-2.69,1.51-4.45,5.21-5.06,6.87c-3.73-4.88-1.51-6.91,0-13.18c2.37-4.35,4.06-8.18,5.37-12.57c0.73-1.93,1.46-3.93,2.24-6.08
							c1.06-3.51-0.3-6-1.36-6.69C814.45,504.13,812.19,504.39,810.28,507.68z"/>
						<path class="st52" d="M819.79,526.77c-3.33,0.48-5.69,5.08-5.66,9.58c-2.51,1.41-4.22,4.75-4.93,6.52
							c1.37-1.76,4.85-5.52,6-5.97C815.56,532.57,817.1,529.01,819.79,526.77L819.79,526.77z M802.35,523.91l-0.42,0.85
							c-0.26-1.2-0.69-2.21-1.24-3.02c-0.14,3.29-1.96,5.64-3.25,7.24C800.38,527.65,801.56,526.06,802.35,523.91L802.35,523.91z
							 M791.65,523.66c-0.16-0.38-0.58-0.88-1.21-1.23c-0.6,2.9-1.28,4.26-2.56,6.54C789.96,527.34,790.97,525.57,791.65,523.66
							L791.65,523.66z M782.55,526.46l-0.11,0.15c-0.53-0.06-1.01-0.07-1.46-0.03c-0.45,3.16-1.1,5.12-2.67,7.31
							C780.73,531.53,781.96,529.92,782.55,526.46z"/>
					</g>
					<linearGradient id="SVGID_35_" gradientUnits="userSpaceOnUse" x1="716.1588" y1="671.2881" x2="748.3065" y2="731.6088">
						<stop  offset="0" style="stop-color:#A77EF7"/>
						<stop  offset="1" style="stop-color:#5E65D6"/>
					</linearGradient>
					<path class="st53" d="M724.08,639.56c11.49-20.02,20.48-45.09,36.54-65.43c1.34-1.69,4.48-2.99,5.64-4.78
						c1.68-2.59,3.35-5.13,5.01-7.63c7.52,0.13,16.77,4.01,23.11,10.41c-0.9,2.68-1.78,5.35-2.66,8c-1.02,3.09,0.93,9.71,0.05,12.8
						c-7.91,27.81-16.47,51.15-28.15,76.68c-15.92,20.54-86.67,152.37-123.67,104.53c-3.33-17.02,1.18-31.17,9.74-44.94
						c4.74-7.62,11.94-14.27,16.79-19.3C678.11,697.86,706.61,657.57,724.08,639.56z"/>
				</g>
				<linearGradient id="SVGID_36_" gradientUnits="userSpaceOnUse" x1="709.8952" y1="769.0065" x2="690.8099" y2="936.277">
					<stop  offset="0" style="stop-color:#A77EF7"/>
					<stop  offset="1" style="stop-color:#5E65D6"/>
				</linearGradient>
				<path class="st54" d="M645.36,837.13c2.59,23.35-4.43,46.3,2.72,67.62c0.32,2.2,0.52,10.84,0.9,13.19
					c4.71,27.61,63.11,55.55,111.81,29.06c0.27-3.42-0.04-7,0.22-13.34c-0.9-5.92,1.66-12.27,1.64-15.88
					c-0.07-15.02-4.75-22.71-2.5-39.43c4.56-34.01,23.41-66.7,12.98-93.47c-2.24-5.74-6.16-8.53-10.6-12.1
					c-11.51-9.25-71.04-39.56-89.09-41.7C621.05,724.29,642.55,811.8,645.36,837.13z"/>
				<path class="st55" d="M765.43,853.68c6.76-25,15.58-48.59,7.71-68.81c-2.24-5.74-6.16-8.53-10.6-12.1
					c-11.51-9.25-9.99,15.62-28.03,13.48C731.03,819.49,747.46,849.72,765.43,853.68z"/>
				<g>
					<path class="st31" d="M728.69,720.63c-0.61,8.3-0.21,20.25,1.33,28.67c-17.06-0.56-40.78-5.02-43.37-17.72
						c0.12-1.52,0.23-3.07,0.31-4.58c-0.23-0.21-0.46-0.39-0.7-0.55c-6.12-4.07-16.24-7.09-22.75-14.53
						c-10.4-11.89-15.92-27.86-7.76-43.94c14.9-29.36,50.94-29.86,71.02-6.12c3.92,4.64,1.05,9.44,3.28,13.91
						c0.44,0.88,2.04,1.26,3.9,2.8c2.57,2.12,10.06,20.47,9.87,30.05c-0.08,3.86-8.94,9.29-12.88,11.42
						C730.6,720.23,729.75,720.43,728.69,720.63z"/>
					<linearGradient id="SVGID_37_" gradientUnits="userSpaceOnUse" x1="710.8874" y1="720.299" x2="704.9466" y2="735.2349">
						<stop  offset="0" style="stop-color:#FF8A78"/>
						<stop  offset="1" style="stop-color:#FFA799"/>
					</linearGradient>
					<path class="st56" d="M728.69,720.63c-0.61,8.3-0.21,20.25,1.33,28.67c-17.06-0.56-40.78-5.02-43.37-17.72
						c0.12-1.52,0.23-3.07,0.31-4.58c-0.23-0.21-0.49-0.35-0.7-0.55c-12.97-12.14,4.38-26.05,26.3-14.07
						C716.12,718.06,721.65,721.01,728.69,720.63z"/>
					<linearGradient id="SVGID_38_" gradientUnits="userSpaceOnUse" x1="731.0255" y1="678.485" x2="722.262" y2="695.3118">
						<stop  offset="0" style="stop-color:#FFB89E"/>
						<stop  offset="1" style="stop-color:#FFA799"/>
					</linearGradient>
					<path class="st57" d="M743.81,708.63c-0.08,1.69-7.06,4.23-9.98,4.62c1.99-18.13-15.27-20.91-12.67-38.61
						c1.56-10.64-9.38-14.49-5.09-22.28c3.87,2.54,7.49,5.71,10.69,9.5c3.92,4.64,1.05,9.44,3.28,13.91c0.44,0.88,2.04,1.26,3.9,2.8
						C736.52,680.7,744.26,699.06,743.81,708.63z"/>
					<g>
						<path class="st58" d="M720.29,701.26c-0.34-4.06-1.98-4.84-3.34-3.76c-1.49,1.18-2.77,4.7-2.36,8.87
							c0.66,6.74,6.91,12.77,11.21,7.32c-4.71,2.49-6.92-3.54-7.12-7.8C718.54,703.01,719.27,700.58,720.29,701.26z"/>
						<path class="st59" d="M718.79,703.86c2.5,1.9,3.66,3.18,3.62,4.24c-0.03,0.74-0.65,1.85-2.85,1.08
							C718.73,707.45,718.6,705.55,718.79,703.86z"/>
					</g>
					<path class="st60" d="M686.44,731.12c-5.05,1.56-9.77,6.75-8.84,10.08c5.03,20.54,42.68,25.13,66.09,20.18
						c0.28-0.06-8.76-12.02-13.25-13.48C715.71,749.35,690.98,743.25,686.44,731.12z"/>
					<g>
						<path class="st61" d="M684.63,729.85c-6.24-6.66-16.8-9.84-23.58-17.59c-6.68-7.64-14-19.37-9.54-31.42
							c-7.87-24.76,19.03-44.39,41.69-48.85c16.22-3.19,25.91,14.2,18.87,25.96c6.08,6.8,5.87,15.79,5.45,18.1
							c-1.3,7.07-1.11,7.96,1.15,13.25c1.78,4.18,6.23,14.28-1.82,7.88c-5.21-4.13-8.85,5-7.08,11.31c0.8,2.87,1.78,6.5,1.13,12.21
							C709.38,733.94,688.1,733.56,684.63,729.85z"/>
						<linearGradient id="SVGID_39_" gradientUnits="userSpaceOnUse" x1="712.4567" y1="637.5595" x2="673.7543" y2="659.7258">
							<stop  offset="0" style="stop-color:#8A4791"/>
							<stop  offset="1" style="stop-color:#562E65"/>
						</linearGradient>
						<path class="st62" d="M659.02,669.62c-5.37-23.98,26.16-36.12,38.49-36.4c12.48-0.29,22.26,20.25,7.46,27.16
							C694.89,665.1,674.91,655.88,659.02,669.62z"/>
					</g>
				</g>
				<g>
					<linearGradient id="SVGID_40_" gradientUnits="userSpaceOnUse" x1="908.6233" y1="737.456" x2="934.5584" y2="703.1943">
						<stop  offset="0" style="stop-color:#FF8A78"/>
						<stop  offset="1" style="stop-color:#FFA799"/>
					</linearGradient>
					<path class="st63" d="M908.98,703.58c-0.74,1.83-0.77,2.89-1.02,4.85c-1.23,2.98-1.94,5.28-2.35,7.35
						c-0.77,3.88-0.48,6.94-0.6,12.11c-0.07,2.99,0.41,4.53,1.05,7.44c-3.03,5.92-7.79,9.56-12.24,14.45l14.41,10.99
						c6.08-4.01,10.83-8.22,16.07-11.71c4.25-1.68,5.74-2.63,7.02-3.96c3.34-3.48,13.17-13.82,13.73-17.89
						c0.63-4.51-0.58-14.94-1.6-20.67c-2.6-14.61-8.17-29.95-9.12-23.18c-1.39,1.62-0.25,14.82-1.13,16.78
						c-3.41,3.93-5.04,5.54-9.31,10.23c-2.65,1.51-4.4,3.09-5.68,3.43c-1.47,0.4-2.29-0.63-2.34-1.92
						c-0.06-1.45,0.87-4.01,1.63-7.79c-0.01-6.26-1.55-9.81-4.9-9.48c-1.72,0.17-2.71,1.08-3.14,2.93
						C909.13,699,909.22,701.02,908.98,703.58z"/>
					<linearGradient id="SVGID_41_" gradientUnits="userSpaceOnUse" x1="827.8581" y1="750.1717" x2="835.7129" y2="909.5269">
						<stop  offset="0" style="stop-color:#A77EF7"/>
						<stop  offset="1" style="stop-color:#5E65D6"/>
					</linearGradient>
					<path class="st64" d="M763.71,764.88c19.84,3.06,58.13,24.89,84.55,36.73c14.73-21,34.07-46.17,46-54.64
						c1.37-0.97,4.86-2.95,5.93-4.26c1.73-2.12,3.42-4.3,5.05-6.54c7.45,1.04,18.25,10.34,18.11,14.74c-1.2,2.2-2.42,4.49-3.66,6.86
						c-0.85,1.62-0.54,5.18-1.04,7c-4.05,14.7-26.35,48.67-36.75,63.82c-6.01,8.76-8.12,13.89-12.19,16.51
						c-6.53,4.2-15.29,1.9-32.17-2.34c-14.2-3.57-60.07-11.91-81.17-23.05c-14.88-7.85-26.3-22-20.38-38.28
						C739.77,770.99,750.95,762.91,763.71,764.88z"/>
				</g>
			</g>
		</g>
	</g>
	<g>
		<path class="st65" d="M1309.75,158.71c-12.96-7.19-26.71,2.51-26.57,21.26c0.06,9.71,4.18,19.7,10.68,25.96
			c1.71,1.64,3.48,2.95,5.25,3.93c12.94,7.17,26.62-2.52,26.52-21.18c-0.02-9.73-4.12-19.76-10.59-26
			C1313.32,161.03,1311.54,159.71,1309.75,158.71L1309.75,158.71z M1297.26,218.67c-2.39-1.32-4.75-3.07-7.05-5.27
			c-8.75-8.4-14.23-21.86-14.36-34.92c-0.15-25.15,18.29-38.22,35.72-28.57c2.42,1.34,4.82,3.12,7.15,5.37
			c8.72,8.38,14.2,21.84,14.26,34.91C1333.08,215.27,1314.66,228.31,1297.26,218.67L1297.26,218.67z M1356.6,197.3
			c3.03,1.68,4.84,6.1,4.02,9.9l-3.17,14.74c-0.81,3.76-3.92,5.44-6.96,3.76l-1.55-0.86c-2.32-1.29-4.78-0.59-6.14,1.69
			c-0.88,1.47-1.82,2.87-2.82,4.18c-1.58,2.07-1.84,5.38-0.63,8.34l0.82,2c1.56,3.81,0.63,8.15-2.07,9.6l-10.67,5.76
			c-1.36,0.74-2.91,0.62-4.32-0.15c-1.41-0.78-2.67-2.23-3.46-4.16l-0.83-1.95c-0.77-1.88-2.01-3.32-3.43-4.11
			c-0.82-0.45-1.69-0.68-2.56-0.66c-1.51,0.01-3.04-0.05-4.56-0.19c-2.44-0.23-4.47,1.49-5.09,4.38l-0.41,1.92
			c-0.81,3.75-3.93,5.44-6.96,3.76l-11.89-6.6c-3.04-1.68-4.84-6.1-4.04-9.85l0.41-1.92c0.62-2.88-0.31-6.25-2.32-8.48
			c-1.28-1.41-2.48-2.87-3.66-4.37c-0.68-0.89-1.45-1.57-2.27-2.02c-1.41-0.79-2.95-0.88-4.28-0.16l-1.39,0.72
			c-1.37,0.74-2.92,0.63-4.33-0.15c-1.41-0.78-2.67-2.23-3.46-4.16l-6.18-15.11c-1.55-3.81-0.62-8.15,2.07-9.6l1.41-0.76
			c2.09-1.13,3.16-3.99,2.72-7.18c-0.29-2.03-0.49-4.05-0.61-6.09c-0.19-3.14-1.86-6.12-4.18-7.41l-1.55-0.86
			c-3.04-1.68-4.84-6.09-4.03-9.85l3.17-14.73c0.82-3.8,3.93-5.48,6.97-3.8l1.55,0.86c2.33,1.29,4.78,0.59,6.14-1.69
			c0.88-1.48,1.82-2.87,2.82-4.18c1.57-2.03,1.83-5.34,0.62-8.31l-0.82-1.99c-1.54-3.85-0.62-8.15,2.08-9.64l10.67-5.77
			c1.37-0.73,2.92-0.62,4.32,0.15c1.41,0.78,2.67,2.23,3.46,4.16l0.82,1.99c0.77,1.88,2.01,3.33,3.43,4.11
			c0.81,0.45,1.68,0.69,2.56,0.66c1.52-0.05,3.05,0.01,4.57,0.15c2.43,0.27,4.46-1.45,5.08-4.33l0.41-1.92
			c0.82-3.8,3.93-5.48,6.97-3.8l11.9,6.6c3.03,1.68,4.84,6.09,4.02,9.89l-0.41,1.92c-0.62,2.88,0.31,6.25,2.3,8.42
			c1.28,1.41,2.51,2.89,3.69,4.43c0.68,0.89,1.45,1.57,2.27,2.02c1.42,0.79,2.95,0.88,4.28,0.16l1.41-0.76
			c1.37-0.74,2.92-0.63,4.32,0.15c1.41,0.78,2.67,2.23,3.47,4.16l6.18,15.11c1.55,3.85,0.63,8.15-2.07,9.64l-1.41,0.76
			c-2.09,1.13-3.16,4-2.71,7.15c0.28,2.02,0.49,4.05,0.62,6.08c0.19,3.15,1.85,6.12,4.18,7.41L1356.6,197.3z"/>
	</g>
</g>
</svg>
